<svg xmlns="http://www.w3.org/2000/svg" width="32.778" height="28.236" viewBox="0 0 32.778 28.236">
  <path id="Pfad_2176" data-name="Pfad 2176" d="M9.059,13.98a3.605,3.605,0,1,1-5.423-3.115Q3.6,10.788-.989-7.982a.49.49,0,0,0-.432-.372l-4.334,0A1.147,1.147,0,0,1-6.9-9.5a1.147,1.147,0,0,1,1.085-1.145l4.352,0A2.786,2.786,0,0,1,1.22-8.609l.567,2.317h22.94a1.149,1.149,0,0,1,1.149,1.147c0,.046-.016.164-.046.358L22.969,6.686a1.146,1.146,0,0,1-1.189.867l-16.611,0,.6,2.44a.487.487,0,0,0,.432.372l13.35,0a3.606,3.606,0,0,1,.37,7.192c-.123.012-.245.019-.37.019a3.609,3.609,0,0,1-3.36-4.916H8.814a3.62,3.62,0,0,1,.245,1.311m10.49-1.311A1.311,1.311,0,1,0,20.86,13.98a1.312,1.312,0,0,0-1.311-1.311m-14.095,0A1.311,1.311,0,1,0,6.765,13.98a1.312,1.312,0,0,0-1.311-1.311M23.267-4H2.348L4.61,5.264h16.35Z" transform="translate(6.902 10.651)" fill="#2621c5"/>
</svg>
