<svg id="Essen_Gehen_Icon" data-name="Essen Gehen Icon" xmlns="http://www.w3.org/2000/svg" width="30.733" height="30.733" viewBox="0 0 30.733 30.733">
  <path id="Pfad_748" data-name="Pfad 748" d="M26.549,19.822l-5.4,5.4a.9.9,0,0,1-.636.265H7.005V19.714a4.509,4.509,0,0,1,6.577-.675,3.08,3.08,0,0,0,2.206,1.046h2.923a.9.9,0,0,1,0,1.8H15.032a2.7,2.7,0,0,0-2.187,1.119A.9.9,0,1,0,14.3,24.06a.9.9,0,0,1,.729-.374h4.735a.9.9,0,0,0,.636-.262l4.874-4.877a.9.9,0,1,1,1.272,1.274M5.205,25.489H3.285v-5.4h1.92Zm22.618-8.213a2.7,2.7,0,0,0-3.818,0l-2.764,2.764a2.707,2.707,0,0,0-2.531-1.754H15.789c-.414,0-.6-.227-1.018-.6a6.3,6.3,0,0,0-8.922.6H2.384a.9.9,0,0,0-.9.9v7.2a.9.9,0,0,0,.9.9H20.511a2.69,2.69,0,0,0,1.91-.79l5.4-5.4a2.7,2.7,0,0,0,0-3.818" transform="translate(0.317 3.444)" fill="#2621c5"/>
  <path id="Pfad_749" data-name="Pfad 749" d="M3.636,16.328A12.014,12.014,0,0,1,15.427,5.392,11.781,11.781,0,0,1,27.1,16.328ZM15.427,1.8a.9.9,0,1,1-.9.9.9.9,0,0,1,.9-.9M29.832,16.328H28.9A13.644,13.644,0,0,0,17.88,3.828,2.667,2.667,0,0,0,18.127,2.7a2.7,2.7,0,1,0-5.4,0,2.674,2.674,0,0,0,.245,1.125,13.733,13.733,0,0,0-11.14,12.5H.9a.9.9,0,1,0,0,1.8h28.93a.9.9,0,1,0,0-1.8" fill="#2621c5"/>
</svg>
