<svg xmlns="http://www.w3.org/2000/svg" width="33.054" height="30.613" viewBox="0 0 33.054 30.613">
  <path id="Pfad_759" data-name="Pfad 759" d="M30.743,24.954a1.069,1.069,0,0,1-.613.557l-2.98,1.065a31.822,31.822,0,0,1-21.245,0L2.924,25.51a1.083,1.083,0,0,1,.365-2.1,1.154,1.154,0,0,1,.363.06l2.98,1.065a29.578,29.578,0,0,0,19.787,0l2.98-1.065a1.092,1.092,0,0,1,1.387.66,1.068,1.068,0,0,1-.043.826m-9.717-1.3a27.6,27.6,0,0,1-8.9.013l.109-.4a4.484,4.484,0,0,1,4.3-3.291,4.392,4.392,0,0,1,2.489.762,4.456,4.456,0,0,1,1.646,2.032ZM4.181,10.228a1.165,1.165,0,0,1-.019-2.089L10.618,4.9a1.1,1.1,0,0,0,.608-.983V2.683c5.174,2.394,4.261,8.032,4.218,8.286a1.1,1.1,0,0,0,1.083,1.3h5.136a4.027,4.027,0,0,1,3.964,3.3l1.207,6.487-1.153.41c-.808.29-1.632.53-2.463.738l-.5-1.248a6.683,6.683,0,0,0-2.454-3.029,6.563,6.563,0,0,0-3.726-1.143,6.691,6.691,0,0,0-6.425,4.907l-.148.54a26.478,26.478,0,0,1-2.59-.766l-.687-.245,1.521-9.176A1.1,1.1,0,0,0,7.6,11.866Zm24.758,11.1-1.145-6.168a6.235,6.235,0,0,0-6.132-5.095H17.745A9.691,9.691,0,0,0,10.43.043,1.1,1.1,0,0,0,9.023,1.1V3.24L3.174,6.17A3.382,3.382,0,0,0,1.319,9.176a3.345,3.345,0,0,0,1.9,3.035L5.9,13.493,4.576,21.46l-.183-.065a3.286,3.286,0,1,0-2.21,6.189l2.979,1.065a33.693,33.693,0,0,0,11.363,1.964,33.7,33.7,0,0,0,11.363-1.964l2.982-1.065a3.278,3.278,0,0,0-1.932-6.258" transform="translate(0 0)" fill="#2621c5"/>
</svg>
