<svg xmlns="http://www.w3.org/2000/svg" width="28.799" height="28.799" viewBox="0 0 28.799 28.799">
  <path id="Pfad_761" data-name="Pfad 761" d="M16.086,21.994H11.868V16.436L15,13.309A.843.843,0,0,0,13.8,12.117L11.868,14.05V5.963a.844.844,0,1,0-1.688,0v4.714L8.247,8.742A.844.844,0,0,0,7.052,9.934l3.128,3.129v4.362L8.247,15.49a.844.844,0,1,0-1.194,1.194l3.128,3.128v2.182H5.962a4.212,4.212,0,0,1-1.815-8.042.843.843,0,0,0,.24-1.366,3.35,3.35,0,0,1-1.012-2.4A3.409,3.409,0,0,1,6.136,6.875a.849.849,0,0,0,.671-.955,4.218,4.218,0,1,1,8.437,0,.846.846,0,0,0,.669.955,3.37,3.37,0,0,1,1.695,5.709.844.844,0,0,0,.238,1.368,4.211,4.211,0,0,1-1.758,8.042m.844,5.118H11.868V23.681H16.93Zm.844-25.423a4.24,4.24,0,0,1,4.211,4.343.846.846,0,0,0,.677.843,3.407,3.407,0,0,1,2.761,3.307,3.344,3.344,0,0,1-1.011,2.4.845.845,0,0,0,.239,1.368,4.212,4.212,0,0,1-1.815,8.042H20.214a5.885,5.885,0,0,0-.738-9.039,5.007,5.007,0,0,0,.829-2.773A5.074,5.074,0,0,0,16.9,5.4a5.945,5.945,0,0,0-1.251-3.139,4.22,4.22,0,0,1,2.122-.573m5.062,21.992a5.9,5.9,0,0,0,3.447-10.726,5.024,5.024,0,0,0,.827-2.773A5.091,5.091,0,0,0,23.654,5.4,5.9,5.9,0,0,0,14.39,1.068,5.83,5.83,0,0,0,11.024,0,5.936,5.936,0,0,0,5.145,5.4a5.092,5.092,0,0,0-3.46,4.784,5.016,5.016,0,0,0,.829,2.773A5.9,5.9,0,0,0,5.962,23.681H10.18v3.431H5.962a.843.843,0,1,0,0,1.687H22.836a.843.843,0,1,0,0-1.687H18.617V23.681Z" fill="#2621c5"/>
</svg>
