<svg xmlns="http://www.w3.org/2000/svg" width="33.306" height="23.94" viewBox="0 0 33.306 23.94">
  <path id="Pfad_760" data-name="Pfad 760" d="M24.979,17.695c0,.98-.8,1.992-2.207,2.772a14.122,14.122,0,0,1-12.238,0c-1.405-.78-2.209-1.791-2.209-2.772V12.1l7.913,3.43a1.039,1.039,0,0,0,.827,0l7.913-3.43ZM16.651,2.175l13,5.632-1.029.448L16.782,6.775a1.04,1.04,0,1,0-.259,2.064l8.335,1.042L16.651,13.44c-7.341-3.183-5.777-2.506-12.993-5.633ZM32.68,6.852,17.065.085a1.039,1.039,0,0,0-.827,0L.627,6.852a1.042,1.042,0,0,0,0,1.911L6.243,11.2v6.5c0,3.5,4.572,6.244,10.408,6.244S27.061,21.2,27.061,17.695V11.2l1.042-.453V21.859a1.041,1.041,0,1,0,2.082,0V9.843L32.68,8.763a1.042,1.042,0,0,0,0-1.911" transform="translate(0 0.001)" fill="#2621c5"/>
</svg>
