<svg xmlns="http://www.w3.org/2000/svg" width="32" height="31.999" viewBox="0 0 32 31.999">
  <path id="Pfad_758" data-name="Pfad 758" d="M29.832,11.6l-2.27,2.27a.575.575,0,0,1-.812,0L18.125,5.25a.577.577,0,0,1,0-.812s-.088.091,2.27-2.27a.575.575,0,0,1,.812,0c.877.874,7.722,7.719,8.625,8.624a.577.577,0,0,1,0,.812M25.9,4.034l1.122-1.122,1.535,1.535L27.437,5.569ZM11.573,21.622,10.43,20.476,20.477,10.429l1.146,1.143Zm2.3,5.939s.088-.091-2.272,2.27a.572.572,0,0,1-.809,0L2.167,21.207a.574.574,0,0,1,0-.809l2.27-2.272a.575.575,0,0,1,.812,0l8.625,8.624a.577.577,0,0,1,0,.812m-7.777.4L4.975,29.087,3.44,27.552,4.561,26.43ZM31.246,9.378,28.852,6.984l1.163-1.163a1.945,1.945,0,0,0,0-2.748L28.4,1.457a1.943,1.943,0,0,0-2.748,0L24.487,2.619,22.621.753a2.576,2.576,0,0,0-3.638,0L16.71,3.025a2.57,2.57,0,0,0,0,3.639l2.352,2.351L9.015,19.062,6.663,16.711a2.572,2.572,0,0,0-3.641,0L.753,18.982a2.575,2.575,0,0,0,0,3.639l2.394,2.394L1.984,26.179a1.948,1.948,0,0,0,0,2.748L3.6,30.543a1.943,1.943,0,0,0,2.748,0L7.511,29.38l1.867,1.866a2.573,2.573,0,0,0,3.638,0l2.272-2.27a2.572,2.572,0,0,0,0-3.641l-2.3-2.3,10.05-10.048,2.3,2.3a2.569,2.569,0,0,0,3.638,0l2.272-2.272a2.573,2.573,0,0,0,0-3.638" transform="translate(0.001 0)" fill="#2621c5"/>
</svg>
