<svg id="verstecken" xmlns="http://www.w3.org/2000/svg" width="32.5" height="32.5" viewBox="0 0 32.5 32.5">
  <path id="Pfad_750" data-name="Pfad 750" d="M18.136,16.4l5.456,5.468A4.051,4.051,0,0,0,18.136,16.4Zm-2.787-1.021a6.553,6.553,0,0,1,11.005,6.209,6.45,6.45,0,0,1-1.769,3.074,1.25,1.25,0,0,1-1.753-.016l-3.051-3.058-.74-.742-2.453-2.459L15.349,17.15l-.03-.031a1.25,1.25,0,0,1,.031-1.736Z" transform="translate(-3.75 -3.75)" fill="#dcd6c8" fill-rule="evenodd"/>
  <path id="Pfad_751" data-name="Pfad 751" d="M4.117,4.115a1.25,1.25,0,0,1,1.768,0l29.917,30a1.25,1.25,0,0,1-1.77,1.765l-7.038-7.057-7.213-7.233-.74-.742-2.453-2.459-1.269-1.272-4.361-4.374L4.115,5.883a1.25,1.25,0,0,1,0-1.768Z" transform="translate(-3.75 -3.75)" fill="#dcd6c8" fill-rule="evenodd"/>
  <path id="Pfad_752" data-name="Pfad 752" d="M14.558,19.964a1.25,1.25,0,0,1,1.495.944,3.983,3.983,0,0,0,.221.684,4.074,4.074,0,0,0,2.66,2.32,1.25,1.25,0,0,1-.667,2.409,6.562,6.562,0,0,1-4.621-4.729q-.016-.066-.032-.133a1.25,1.25,0,0,1,.944-1.495Z" transform="translate(-3.75 -3.75)" fill="#dcd6c8" fill-rule="evenodd"/>
  <path id="Pfad_753" data-name="Pfad 753" d="M4.449,17.209C8,10.6,13.662,6.5,20,6.5s12,4.1,15.551,10.709a5.892,5.892,0,0,1,0,5.566C32,29.387,26.338,33.483,20,33.483S8,29.387,4.449,22.775a5.893,5.893,0,0,1,0-5.566Zm2.2,4.383a3.392,3.392,0,0,1,0-3.2,21.031,21.031,0,0,1,4.291-5.632l.016-.015A13.41,13.41,0,0,1,20,9c5.162,0,10.1,3.337,13.349,9.391a3.392,3.392,0,0,1,0,3.2,19.439,19.439,0,0,1-6.355,7.233A12.764,12.764,0,0,1,20,30.983c-5.162,0-10.1-3.338-13.349-9.391Zm9.4-.684a3.983,3.983,0,0,0,.221.684H13.646q-.016-.066-.032-.133a1.25,1.25,0,0,1,2.439-.551Z" transform="translate(-3.75 -3.75)" fill="#dcd6c8" fill-rule="evenodd"/>
</svg>
