<svg id="zeigen" xmlns="http://www.w3.org/2000/svg" width="32.55" height="27" viewBox="0 0 32.55 27">
  <path id="Pfad_754" data-name="Pfad 754" d="M14.6,20a1.258,1.258,0,0,1,1.5.9c.1.2.1.5.2.7A4.144,4.144,0,0,0,19,23.9a1.237,1.237,0,1,1-.6,2.4,6.448,6.448,0,0,1-4.6-4.7v-.1A1.045,1.045,0,0,1,14.6,20Z" transform="translate(-3.725 -6.5)" fill="#dcd6c8" fill-rule="evenodd"/>
  <path id="Pfad_755" data-name="Pfad 755" d="M4.4,17.2C8,10.6,13.7,6.5,20,6.5s12,4.1,15.6,10.7a6.144,6.144,0,0,1,0,5.6C32,29.4,26.3,33.5,20,33.5S8,29.4,4.4,22.8A6.144,6.144,0,0,1,4.4,17.2Zm2.3,4.4a3.6,3.6,0,0,1,0-3.2A19.317,19.317,0,0,1,11,12.8h0a13.535,13.535,0,0,1,9-3.7c5.2,0,10.1,3.3,13.3,9.4a3.6,3.6,0,0,1,0,3.2,18.888,18.888,0,0,1-6.4,7.2,13.115,13.115,0,0,1-7,2.2C14.8,31,9.9,27.6,6.7,21.6Zm9.4-.7c.1.2.1.5.2.7H13.7v-.1a1.258,1.258,0,0,1,.9-1.5A1.225,1.225,0,0,1,16.1,20.9Z" transform="translate(-3.725 -6.5)" fill="#dcd6c8" fill-rule="evenodd"/>
  <path id="Pfad_756" data-name="Pfad 756" d="M26.4,18.4A6.57,6.57,0,0,0,20,13.5a6.655,6.655,0,0,0-4.7,1.9,1.151,1.151,0,0,0,0,1.7h0a.972.972,0,0,0,1.4.1l1.4-.8a4.136,4.136,0,0,1,1.9-.5,4.012,4.012,0,0,1,4,4,4.136,4.136,0,0,1-.5,1.9l-.8,1.4a1.2,1.2,0,0,0,.1,1.4,1.267,1.267,0,0,0,1.8,0,6.086,6.086,0,0,0,1.8-3.1,7.772,7.772,0,0,0,.2-1.6C26.5,19.4,26.5,18.9,26.4,18.4Z" transform="translate(-3.725 -6.5)" fill="#dcd6c8" fill-rule="evenodd"/>
</svg>
