<svg id="beenden-sie-oben-rechts" xmlns="http://www.w3.org/2000/svg" width="16.323" height="16.323" viewBox="0 0 16.323 16.323">
  <path id="Path_1345" data-name="Path 1345" d="M14.689,27.774H13.536a.432.432,0,0,0-.432.432v5.256a.507.507,0,0,1-.506.506H2.524a.506.506,0,0,1-.506-.506V23.389a.507.507,0,0,1,.506-.506H8.05a.432.432,0,0,0,.432-.432V21.3a.432.432,0,0,0-.432-.432H2.524A2.526,2.526,0,0,0,0,23.389V33.462a2.526,2.526,0,0,0,2.523,2.524H12.6a2.526,2.526,0,0,0,2.524-2.524V28.206A.432.432,0,0,0,14.689,27.774Z" transform="translate(-0.001 -19.662)"/>
  <path id="Path_1346" data-name="Path 1346" d="M127.547,0h-4.586a.432.432,0,0,0-.432.432V1.585a.432.432,0,0,0,.432.432h1.574L118.613,7.94a.432.432,0,0,0,0,.611l.815.815a.432.432,0,0,0,.611,0l5.923-5.923V5.018a.432.432,0,0,0,.432.432h1.153a.432.432,0,0,0,.432-.432V.432A.432.432,0,0,0,127.547,0Z" transform="translate(-111.656 0)"/>
</svg>
