<svg xmlns="http://www.w3.org/2000/svg" width="160.152" height="58.819" viewBox="0 0 160.152 58.819">
  <g id="Gruppe_697" data-name="Gruppe 697" transform="translate(0)">
    <path id="Pfad_2151" data-name="Pfad 2151" d="M18.836,0V13.4H4.186V0H0V31.394H4.186V17.581h14.65V31.394h4.186V0Z" fill="#322e2d"/>
    <path id="Pfad_2152" data-name="Pfad 2152" d="M26.864,0l9.762,13.437h5.233L32.1,0ZM51.621,0,41.859,13.437V31.394h4.186V14.877L56.854,0Z" fill="#322e2d"/>
    <path id="Pfad_2153" data-name="Pfad 2153" d="M60.7,0V31.394H79.532V27.208H64.881v-9.42h13.4V13.6h-13.4V4.186H79.532V0Z" fill="#322e2d"/>
    <path id="Pfad_2154" data-name="Pfad 2154" d="M106.74,0V4.186h10.465V31.394h4.186V4.186h10.464V0Z" fill="#322e2d"/>
    <path id="Pfad_2155" data-name="Pfad 2155" d="M105.529,15.694a21.6,21.6,0,0,0-3.653-1.469c-1.284-.391-2.594-.749-3.894-1.065a24.524,24.524,0,0,1-3.412-1.08,5.559,5.559,0,0,1-2.249-1.61,3.146,3.146,0,0,1-.8-2.243,3.172,3.172,0,0,1,1.673-3.005A8.507,8.507,0,0,1,97.687,4.2l.681-.016V0h-.681a15.523,15.523,0,0,0-4.866.82,9.572,9.572,0,0,0-4.169,2.846,6.785,6.785,0,0,0-1.754,4.7,7.471,7.471,0,0,0,1.114,4.159,7,7,0,0,0,2.92,2.59,21.564,21.564,0,0,0,3.653,1.469c1.275.388,2.585.746,3.894,1.065a29.955,29.955,0,0,1,3.611,1.082,4.32,4.32,0,0,1,2.045,1.618,3.855,3.855,0,0,1,.8,2.454c0,2.059-.737,4.442-7.113,4.442a9.411,9.411,0,0,1-5.286-1.38A4.841,4.841,0,0,1,90.291,22v-.022L85.811,22v.2a8.635,8.635,0,0,0,1.148,4.058,9.245,9.245,0,0,0,2.435,2.656,11.112,11.112,0,0,0,3.043,1.6,14.107,14.107,0,0,0,2.927.736,20.522,20.522,0,0,0,2.372.14c3.627,0,6.52-.821,8.6-2.44a7.222,7.222,0,0,0,2.958-6.334,7.51,7.51,0,0,0-.957-4.151,7.075,7.075,0,0,0-2.807-2.775" fill="#322e2d"/>
    <path id="Pfad_2156" data-name="Pfad 2156" d="M88.987,40.479H87.8v2.29h1.19a1.088,1.088,0,0,0,.806-.325,1.209,1.209,0,0,0,0-1.639,1.088,1.088,0,0,0-.806-.326M91.1,46.01H90.086l-1.6-2.509H87.8V46.01h-.842V39.693h2.051a1.931,1.931,0,0,1,1.4.549,1.883,1.883,0,0,1-.97,3.223Z" fill="#322e2d"/>
    <path id="Pfad_2157" data-name="Pfad 2157" d="M94.206,43.226v2h2.7v.787H93.363V39.692h3.5v.787H94.206v1.96h2.353v.787Z" fill="#322e2d"/>
    <path id="Pfad_2158" data-name="Pfad 2158" d="M101.833,40.6,100.6,43.7h2.473Zm3.085,5.411h-.925l-.613-1.529h-3.095l-.613,1.529h-.9l2.572-6.317h1Z" fill="#322e2d"/>
    <path id="Pfad_2159" data-name="Pfad 2159" d="M107.929,39.692v5.53h2.426v.787h-3.268V39.692Z" fill="#322e2d"/>
    <path id="Pfad_2160" data-name="Pfad 2160" d="M118.065,43.226v2h2.7v.787h-3.544V39.692h3.5v.787h-2.655v1.96h2.353v.787Z" fill="#322e2d"/>
    <path id="Pfad_2161" data-name="Pfad 2161" d="M124.849,46.119a2.1,2.1,0,0,1-1.465-.54,1.782,1.782,0,0,1-.586-1.355h.851a1.076,1.076,0,0,0,.349.815,1.336,1.336,0,0,0,1.707.041.912.912,0,0,0,.334-.719q0-.852-1.383-1.19-1.756-.422-1.757-1.85a1.581,1.581,0,0,1,.558-1.235,2,2,0,0,1,1.392-.5,1.978,1.978,0,0,1,1.391.522A1.657,1.657,0,0,1,126.8,41.4h-.852a1.009,1.009,0,0,0-.315-.76,1.1,1.1,0,0,0-.792-.3,1.12,1.12,0,0,0-.769.274.869.869,0,0,0-.312.678q0,.814,1.291,1.144,1.849.448,1.85,1.877a1.672,1.672,0,0,1-.586,1.3,2.166,2.166,0,0,1-1.465.513" fill="#322e2d"/>
    <path id="Pfad_2162" data-name="Pfad 2162" d="M128.575,39.692h4.468v.787H131.23v5.53h-.842v-5.53h-1.813Z" fill="#322e2d"/>
    <path id="Pfad_2163" data-name="Pfad 2163" d="M137,40.6l-1.237,3.1h2.473Zm3.085,5.411h-.925l-.613-1.529h-3.1l-.613,1.529h-.9l2.572-6.317h1Z" fill="#322e2d"/>
    <path id="Pfad_2164" data-name="Pfad 2164" d="M140.981,39.692h4.468v.787h-1.813v5.53h-.842v-5.53h-1.813Z" fill="#322e2d"/>
    <path id="Pfad_2165" data-name="Pfad 2165" d="M148.561,43.226v2h2.7v.787h-3.543V39.692h3.5v.787h-2.655v1.96h2.353v.787Z" fill="#322e2d"/>
    <path id="Pfad_2166" data-name="Pfad 2166" d="M95.461,58.819a3.237,3.237,0,0,1-2.362-.934,3.35,3.35,0,0,1,0-4.66,3.2,3.2,0,0,1,2.362-.943,3.249,3.249,0,0,1,2.06.687,3.09,3.09,0,0,1,1.153,1.757h-.9a2.3,2.3,0,0,0-.874-1.194,2.433,2.433,0,0,0-1.442-.444,2.463,2.463,0,1,0,0,4.925,2.433,2.433,0,0,0,1.442-.444,2.3,2.3,0,0,0,.874-1.195h.9a3.176,3.176,0,0,1-1.153,1.768,3.306,3.306,0,0,1-2.06.677" fill="#322e2d"/>
    <path id="Pfad_2167" data-name="Pfad 2167" d="M102.162,57.308a2.566,2.566,0,1,0-.7-1.758,2.373,2.373,0,0,0,.7,1.758m4.1.577a3.442,3.442,0,0,1-4.715,0,3.35,3.35,0,0,1,0-4.66,3.418,3.418,0,0,1,4.715,0,3.123,3.123,0,0,1,.952,2.325,3.174,3.174,0,0,1-.952,2.335" fill="#322e2d"/>
    <path id="Pfad_2168" data-name="Pfad 2168" d="M113.954,52.392v4.935l-3.57-4.935h-.871v6.317h.843V53.792l3.57,4.917h.861V52.392Z" fill="#322e2d"/>
    <path id="Pfad_2169" data-name="Pfad 2169" d="M119.118,58.819a2.1,2.1,0,0,1-1.465-.54,1.782,1.782,0,0,1-.586-1.355h.851a1.076,1.076,0,0,0,.349.815,1.336,1.336,0,0,0,1.707.041.912.912,0,0,0,.334-.719q0-.852-1.383-1.19-1.757-.421-1.757-1.85a1.581,1.581,0,0,1,.558-1.235,2,2,0,0,1,1.392-.5,1.978,1.978,0,0,1,1.391.522,1.657,1.657,0,0,1,.559,1.291h-.852a1.009,1.009,0,0,0-.315-.76,1.1,1.1,0,0,0-.792-.3,1.12,1.12,0,0,0-.769.274.869.869,0,0,0-.312.678q0,.814,1.291,1.144,1.85.448,1.85,1.877a1.672,1.672,0,0,1-.586,1.3,2.166,2.166,0,0,1-1.465.513" fill="#322e2d"/>
    <path id="Pfad_2170" data-name="Pfad 2170" d="M125.865,58.819a2.5,2.5,0,0,1-1.831-.723,2.454,2.454,0,0,1-.732-1.8v-3.9h.833v3.882a1.73,1.73,0,0,0,.494,1.245,1.8,1.8,0,0,0,2.481,0,1.727,1.727,0,0,0,.5-1.245V52.392h.833v3.9a2.416,2.416,0,0,1-.742,1.8,2.481,2.481,0,0,1-1.831.723" fill="#322e2d"/>
    <path id="Pfad_2171" data-name="Pfad 2171" d="M130.928,52.392v6.317H134.2v-.787H131.77v-5.53Z" fill="#322e2d"/>
    <path id="Pfad_2172" data-name="Pfad 2172" d="M134.893,52.392v.787h1.813v5.53h.842v-5.53h1.814v-.787Z" fill="#322e2d"/>
    <path id="Pfad_2173" data-name="Pfad 2173" d="M141.228,52.392v.787h.851v4.743h-.851v.787h2.536v-.787h-.851V53.179h.851v-.787Z" fill="#322e2d"/>
    <path id="Pfad_2174" data-name="Pfad 2174" d="M150.439,52.392v4.935l-3.571-4.935H146v6.317h.843V53.792l3.57,4.917h.861V52.392Z" fill="#322e2d"/>
    <path id="Pfad_2175" data-name="Pfad 2175" d="M157,56.109v-.76h3.149v3.36h-.732V57.446a2.477,2.477,0,0,1-1.012,1.016,3.131,3.131,0,0,1-1.524.357,3.239,3.239,0,0,1-2.362-.934,3.35,3.35,0,0,1,0-4.66,3.2,3.2,0,0,1,2.362-.943,3.27,3.27,0,0,1,1.978.613A2.822,2.822,0,0,1,160,54.47h-.925a2.224,2.224,0,0,0-.861-1.007,2.4,2.4,0,0,0-1.327-.375,2.463,2.463,0,1,0,1.566,4.394,2.21,2.21,0,0,0,.815-1.373Z" fill="#322e2d"/>
  </g>
</svg>
