<svg xmlns="http://www.w3.org/2000/svg" width="160" height="79.744" viewBox="0 0 160 79.744">
  <g id="Rehm-Hof_Logodesign_black" transform="translate(0 -0.8)">
    <g id="Gruppe_690" data-name="Gruppe 690" transform="translate(0 0.8)">
      <path id="Pfad_2076" data-name="Pfad 2076" d="M18.432,36.588,10.256,22.4H5.824V36.588H0V1.1H12.256a15.336,15.336,0,0,1,6.912,1.424,10.008,10.008,0,0,1,4.24,3.824,10.513,10.513,0,0,1,1.408,5.36,10.608,10.608,0,0,1-2.016,6.3,10.258,10.258,0,0,1-6.208,3.856l8.784,14.7H18.432ZM5.824,17.756h6.432a6.757,6.757,0,0,0,4.928-1.632,5.9,5.9,0,0,0,1.664-4.384,5.692,5.692,0,0,0-1.632-4.32,6.932,6.932,0,0,0-4.96-1.552H5.824Z" transform="translate(0 -1.052)" fill="#322e2d"/>
      <path id="Pfad_2077" data-name="Pfad 2077" d="M207.508,5.552V15.968h12.256V20.72H207.508V31.6H221.3v4.752H201.7V.8h19.6V5.552Z" transform="translate(-169.428 -0.8)" fill="#322e2d"/>
      <path id="Pfad_2078" data-name="Pfad 2078" d="M397.136,1.1V36.588h-5.824V21.068H374.624v15.52H368.8V1.1h5.824V16.316h16.688V1.1Z" transform="translate(-309.792 -1.052)" fill="#322e2d"/>
      <path id="Pfad_2079" data-name="Pfad 2079" d="M631.176,1.1V36.588h-5.824v-24.3l-10.816,24.3H610.5l-10.88-24.3v24.3H593.8V1.1h6.272l12.464,27.824L624.936,1.1Z" transform="translate(-498.792 -1.052)" fill="#322e2d"/>
    </g>
    <path id="Pfad_2080" data-name="Pfad 2080" d="M397.136,271.7v35.488h-5.824v-15.52H374.624v15.52H368.8V271.7h5.824v15.216h16.688V271.7Z" transform="translate(-309.792 -227.556)" fill="#322e2d"/>
    <path id="Pfad_2081" data-name="Pfad 2081" d="M890.38,271.7v4.752H875.324v10.464h11.744v4.752H875.324v15.52H869.5V271.7Z" transform="translate(-730.38 -227.556)" fill="#322e2d"/>
    <g id="Gruppe_691" data-name="Gruppe 691" transform="translate(95.616 44.24)">
      <path id="Pfad_2082" data-name="Pfad 2082" d="M606.624,306.284a17.32,17.32,0,0,1-6.592-6.48,19.228,19.228,0,0,1,0-18.72,17.282,17.282,0,0,1,6.592-6.464,19.18,19.18,0,0,1,18.288,0,17.085,17.085,0,0,1,6.56,6.464,18.259,18.259,0,0,1,2.4,9.344,18.461,18.461,0,0,1-2.4,9.376,17.125,17.125,0,0,1-6.56,6.48,19.179,19.179,0,0,1-18.288,0Zm15.392-4.352a11.2,11.2,0,0,0,4.32-4.592,16.133,16.133,0,0,0,0-13.808,11.07,11.07,0,0,0-4.32-4.544,13.21,13.21,0,0,0-12.544,0,11.071,11.071,0,0,0-4.32,4.544,16.133,16.133,0,0,0,0,13.808,11.2,11.2,0,0,0,4.32,4.592,12.236,12.236,0,0,0,6.272,1.6A12.081,12.081,0,0,0,622.016,301.932Z" transform="translate(-597.6 -272.3)" fill="#322e2d"/>
    </g>
    <path id="Pfad_2083" data-name="Pfad 2083" d="M53.34,366.7v4.9H1.1v-4.9Z" transform="translate(-0.924 -307.356)" fill="#322e2d"/>
  </g>
</svg>
