<svg xmlns="http://www.w3.org/2000/svg" width="526.123" height="114" viewBox="0 0 526.123 114">
  <g id="o_-" data-name="o -" transform="translate(0 112.611)">
    <path id="Pfad_2084" data-name="Pfad 2084" d="M1.042,1.3A54.024,54.024,0,0,0,21.725-19.063a57.34,57.34,0,0,0,7.616-29.423,56.909,56.909,0,0,0-7.616-29.343A54.214,54.214,0,0,0,1.042-98.11,57.729,57.729,0,0,0-27.579-105.4,58.05,58.05,0,0,0-56.36-98.11a53.677,53.677,0,0,0-20.6,20.282A57.393,57.393,0,0,0-84.5-48.485a57.828,57.828,0,0,0,7.537,29.423A53.493,53.493,0,0,0-56.36,1.3,58.029,58.029,0,0,0-27.579,8.6,57.708,57.708,0,0,0,1.042,1.3M-47.3-12.329A35.037,35.037,0,0,1-60.85-26.76a46.346,46.346,0,0,1-4.89-21.726,45.874,45.874,0,0,1,4.89-21.646A34.63,34.63,0,0,1-47.3-84.4a38.917,38.917,0,0,1,19.721-4.97A38.911,38.911,0,0,1-7.858-84.4,34.6,34.6,0,0,1,5.691-70.131a45.839,45.839,0,0,1,4.891,21.646A46.31,46.31,0,0,1,5.691-26.76,35,35,0,0,1-7.858-12.329a38.4,38.4,0,0,1-19.721,5.05A38.409,38.409,0,0,1-47.3-12.329" transform="translate(84.5 -7.206)" fill="#fff"/>
    <path id="Pfad_2085" data-name="Pfad 2085" d="M130.85-48.776H524.509V-64.17H130.85Z" transform="translate(1.614 0.598)" fill="#fff"/>
  </g>
</svg>
