<svg xmlns="http://www.w3.org/2000/svg" width="340" height="73.671" viewBox="0 0 340 73.671">
  <g id="o_-" data-name="o -" transform="translate(0 112.611)">
    <path id="Pfad_2084" data-name="Pfad 2084" d="M-29.219-36.448A34.912,34.912,0,0,0-15.853-49.608a37.055,37.055,0,0,0,4.922-19.014,36.777,36.777,0,0,0-4.922-18.962,35.035,35.035,0,0,0-13.366-13.107,37.307,37.307,0,0,0-18.5-4.714,37.514,37.514,0,0,0-18.6,4.714A34.688,34.688,0,0,0-79.629-87.584,37.089,37.089,0,0,0-84.5-68.621a37.37,37.37,0,0,0,4.871,19.014A34.569,34.569,0,0,0-66.315-36.448a37.5,37.5,0,0,0,18.6,4.714,37.293,37.293,0,0,0,18.5-4.714M-60.46-45.256a22.642,22.642,0,0,1-8.756-9.326,29.951,29.951,0,0,1-3.16-14.04,29.646,29.646,0,0,1,3.16-13.988,22.379,22.379,0,0,1,8.756-9.222,25.149,25.149,0,0,1,12.745-3.212,25.146,25.146,0,0,1,12.745,3.212,22.359,22.359,0,0,1,8.756,9.222,29.623,29.623,0,0,1,3.16,13.988,29.927,29.927,0,0,1-3.16,14.04,22.621,22.621,0,0,1-8.756,9.326,24.818,24.818,0,0,1-12.745,3.263A24.821,24.821,0,0,1-60.46-45.256" transform="translate(84.5 -7.206)" fill="#f0f1f1"/>
    <path id="Pfad_2085" data-name="Pfad 2085" d="M130.85-54.222h254.4V-64.17H130.85Z" transform="translate(-45.247 -16.751)" fill="#f0f1f1"/>
  </g>
</svg>
