<svg xmlns="http://www.w3.org/2000/svg" width="536.193" height="1300" viewBox="0 0 536.193 1300">
  <g id="Pattern" transform="translate(1318.476 2595.51) rotate(180)" opacity="0.2">
    <path id="Pfad_2086" data-name="Pfad 2086" d="M27.354,54.8A66.208,66.208,0,0,0,60.2,46.477a61.059,61.059,0,0,0,23.51-23.244,66.032,66.032,0,0,0,8.6-33.586,65.538,65.538,0,0,0-8.6-33.5A61.279,61.279,0,0,0,60.2-67a66.226,66.226,0,0,0-32.844-8.328A65.851,65.851,0,0,0-5.306-67a61.875,61.875,0,0,0-23.6,23.152,64.989,64.989,0,0,0-8.691,33.5,65.477,65.477,0,0,0,8.691,33.586,61.649,61.649,0,0,0,23.6,23.244A65.833,65.833,0,0,0,27.354,54.8m0-18.122A43.824,43.824,0,0,1,4.85,30.92,39.971,39.971,0,0,1-10.612,14.447q-5.582-10.71-5.58-24.8t5.58-24.709A39.481,39.481,0,0,1,4.85-51.353a44.374,44.374,0,0,1,22.5-5.675,44.378,44.378,0,0,1,22.5,5.675A39.514,39.514,0,0,1,65.32-35.062Q70.9-24.446,70.9-10.354t-5.58,24.8A40,40,0,0,1,49.859,30.92a43.828,43.828,0,0,1-22.5,5.763" transform="translate(1028.379 2540.705)" fill="#fff"/>
    <path id="Pfad_2087" data-name="Pfad 2087" d="M54.5-51.558H223.7V-60.04H54.5Z" transform="translate(907.817 2460.349)" fill="#fff"/>
    <path id="Pfad_2088" data-name="Pfad 2088" d="M27.354,54.8A66.208,66.208,0,0,0,60.2,46.477a61.059,61.059,0,0,0,23.51-23.244,66.032,66.032,0,0,0,8.6-33.586,65.538,65.538,0,0,0-8.6-33.5A61.279,61.279,0,0,0,60.2-67a66.226,66.226,0,0,0-32.844-8.328A65.851,65.851,0,0,0-5.306-67a61.875,61.875,0,0,0-23.6,23.152,64.989,64.989,0,0,0-8.691,33.5,65.477,65.477,0,0,0,8.691,33.586,61.649,61.649,0,0,0,23.6,23.244A65.833,65.833,0,0,0,27.354,54.8m0-18.122A43.824,43.824,0,0,1,4.85,30.92,39.971,39.971,0,0,1-10.612,14.447q-5.582-10.707-5.58-24.8t5.58-24.709A39.481,39.481,0,0,1,4.85-51.353a44.374,44.374,0,0,1,22.5-5.675,44.378,44.378,0,0,1,22.5,5.675A39.514,39.514,0,0,1,65.32-35.062Q70.9-24.446,70.9-10.354t-5.58,24.8A40,40,0,0,1,49.859,30.92a43.828,43.828,0,0,1-22.5,5.763" transform="translate(848.349 2410.57)" fill="#fff"/>
    <path id="Pfad_2090" data-name="Pfad 2090" d="M27.354,54.8A66.208,66.208,0,0,0,60.2,46.477a61.059,61.059,0,0,0,23.51-23.244,66.032,66.032,0,0,0,8.6-33.586,65.538,65.538,0,0,0-8.6-33.5A61.279,61.279,0,0,0,60.2-67a66.226,66.226,0,0,0-32.844-8.328A65.851,65.851,0,0,0-5.306-67a61.875,61.875,0,0,0-23.6,23.152,64.989,64.989,0,0,0-8.691,33.5,65.477,65.477,0,0,0,8.691,33.586,61.649,61.649,0,0,0,23.6,23.244A65.833,65.833,0,0,0,27.354,54.8m0-18.122A43.824,43.824,0,0,1,4.85,30.92,39.971,39.971,0,0,1-10.612,14.447q-5.582-10.707-5.58-24.8t5.58-24.709A39.481,39.481,0,0,1,4.85-51.353a44.374,44.374,0,0,1,22.5-5.675,44.378,44.378,0,0,1,22.5,5.675A39.514,39.514,0,0,1,65.32-35.062Q70.9-24.446,70.9-10.354t-5.58,24.8A40,40,0,0,1,49.859,30.92a43.828,43.828,0,0,1-22.5,5.763" transform="translate(1208.071 2410.57)" fill="#fff"/>
    <path id="Pfad_2092" data-name="Pfad 2092" d="M152.245-51.558h18.044V-60.04H152.245Z" transform="translate(978.932 2460.349)" fill="#fff"/>
    <path id="Pfad_2093" data-name="Pfad 2093" d="M54.5-56.019H223.7v-9.087H54.5Z" transform="translate(907.817 2456.663)" fill="#fff"/>
    <path id="Pfad_2094" data-name="Pfad 2094" d="M27.354,54.8A66.208,66.208,0,0,0,60.2,46.477a61.059,61.059,0,0,0,23.51-23.244,66.032,66.032,0,0,0,8.6-33.586,65.538,65.538,0,0,0-8.6-33.5A61.279,61.279,0,0,0,60.2-67a66.226,66.226,0,0,0-32.844-8.328A65.851,65.851,0,0,0-5.306-67a61.875,61.875,0,0,0-23.6,23.152,64.989,64.989,0,0,0-8.691,33.5,65.477,65.477,0,0,0,8.691,33.586,61.649,61.649,0,0,0,23.6,23.244A65.833,65.833,0,0,0,27.354,54.8m0-18.122A43.824,43.824,0,0,1,4.85,30.92,39.971,39.971,0,0,1-10.612,14.447q-5.582-10.707-5.58-24.8t5.58-24.709A39.481,39.481,0,0,1,4.85-51.353a44.373,44.373,0,0,1,22.5-5.673,44.377,44.377,0,0,1,22.5,5.673A39.514,39.514,0,0,1,65.32-35.062Q70.9-24.446,70.9-10.354t-5.58,24.8A40,40,0,0,1,49.859,30.92a43.828,43.828,0,0,1-22.5,5.763" transform="translate(848.349 2410.907)" fill="#fff"/>
    <path id="Pfad_2096" data-name="Pfad 2096" d="M27.354,54.8A66.208,66.208,0,0,0,60.2,46.477a61.059,61.059,0,0,0,23.51-23.244,66.032,66.032,0,0,0,8.6-33.586,65.538,65.538,0,0,0-8.6-33.5A61.279,61.279,0,0,0,60.2-67a66.226,66.226,0,0,0-32.844-8.328A65.851,65.851,0,0,0-5.306-67a61.875,61.875,0,0,0-23.6,23.152,64.989,64.989,0,0,0-8.691,33.5,65.477,65.477,0,0,0,8.691,33.586,61.649,61.649,0,0,0,23.6,23.244A65.833,65.833,0,0,0,27.354,54.8m0-18.122A43.824,43.824,0,0,1,4.85,30.92,39.971,39.971,0,0,1-10.612,14.447q-5.582-10.707-5.58-24.8t5.58-24.709A39.481,39.481,0,0,1,4.85-51.353a44.373,44.373,0,0,1,22.5-5.673,44.377,44.377,0,0,1,22.5,5.673A39.514,39.514,0,0,1,65.32-35.062Q70.9-24.446,70.9-10.354t-5.58,24.8A40,40,0,0,1,49.859,30.92a43.828,43.828,0,0,1-22.5,5.763" transform="translate(1028.379 2280.772)" fill="#fff"/>
    <path id="Pfad_2097" data-name="Pfad 2097" d="M-49.717-122.865H137.529v-17.572H-49.717Z" transform="translate(832 2401.858)" fill="#fff"/>
    <path id="Pfad_2098" data-name="Pfad 2098" d="M54.5-202.022H223.7v-8.484H54.5Z" transform="translate(907.817 2350.882)" fill="#fff"/>
    <path id="Pfad_2099" data-name="Pfad 2099" d="M27.354,54.8A66.208,66.208,0,0,0,60.2,46.477a61.059,61.059,0,0,0,23.51-23.244,66.032,66.032,0,0,0,8.6-33.586,65.538,65.538,0,0,0-8.6-33.5A61.279,61.279,0,0,0,60.2-67a66.226,66.226,0,0,0-32.844-8.328A65.851,65.851,0,0,0-5.306-67a61.875,61.875,0,0,0-23.6,23.152,64.989,64.989,0,0,0-8.691,33.5,65.477,65.477,0,0,0,8.691,33.586,61.649,61.649,0,0,0,23.6,23.244A65.833,65.833,0,0,0,27.354,54.8m0-18.122A43.824,43.824,0,0,1,4.85,30.92,39.971,39.971,0,0,1-10.612,14.447q-5.582-10.707-5.58-24.8t5.58-24.709A39.481,39.481,0,0,1,4.85-51.353a44.373,44.373,0,0,1,22.5-5.673,44.377,44.377,0,0,1,22.5,5.673A39.514,39.514,0,0,1,65.32-35.062Q70.9-24.446,70.9-10.354t-5.58,24.8A40,40,0,0,1,49.859,30.92a43.828,43.828,0,0,1-22.5,5.763" transform="translate(848.349 2150.637)" fill="#fff"/>
    <path id="Pfad_2101" data-name="Pfad 2101" d="M27.354,54.8A66.208,66.208,0,0,0,60.2,46.477a61.059,61.059,0,0,0,23.51-23.244,66.032,66.032,0,0,0,8.6-33.586,65.538,65.538,0,0,0-8.6-33.5A61.279,61.279,0,0,0,60.2-67a66.226,66.226,0,0,0-32.844-8.328A65.851,65.851,0,0,0-5.306-67a61.875,61.875,0,0,0-23.6,23.152,64.989,64.989,0,0,0-8.691,33.5,65.477,65.477,0,0,0,8.691,33.586,61.649,61.649,0,0,0,23.6,23.244A65.833,65.833,0,0,0,27.354,54.8m0-18.122A43.824,43.824,0,0,1,4.85,30.92,39.971,39.971,0,0,1-10.612,14.447q-5.582-10.707-5.58-24.8t5.58-24.709A39.481,39.481,0,0,1,4.85-51.353a44.373,44.373,0,0,1,22.5-5.673,44.377,44.377,0,0,1,22.5,5.673A39.514,39.514,0,0,1,65.32-35.062Q70.9-24.446,70.9-10.354t-5.58,24.8A40,40,0,0,1,49.859,30.92a43.828,43.828,0,0,1-22.5,5.763" transform="translate(1208.071 2410.907)" fill="#fff"/>
    <path id="Pfad_2103" data-name="Pfad 2103" d="M152.245-56.019h18.044v-9.087H152.245Z" transform="translate(978.932 2456.663)" fill="#fff"/>
    <path id="Pfad_2104" data-name="Pfad 2104" d="M158.513-122.865H334.984v-17.572H158.513Z" transform="translate(983.492 2401.858)" fill="#fff"/>
    <path id="Pfad_2105" data-name="Pfad 2105" d="M27.354,54.8A66.208,66.208,0,0,0,60.2,46.477a61.059,61.059,0,0,0,23.51-23.244,66.032,66.032,0,0,0,8.6-33.586,65.538,65.538,0,0,0-8.6-33.5A61.279,61.279,0,0,0,60.2-67a66.226,66.226,0,0,0-32.844-8.328A65.851,65.851,0,0,0-5.306-67a61.875,61.875,0,0,0-23.6,23.152,64.989,64.989,0,0,0-8.691,33.5,65.477,65.477,0,0,0,8.691,33.586,61.649,61.649,0,0,0,23.6,23.244A65.833,65.833,0,0,0,27.354,54.8m0-18.122A43.824,43.824,0,0,1,4.85,30.92,39.971,39.971,0,0,1-10.612,14.447q-5.582-10.707-5.58-24.8t5.58-24.709A39.481,39.481,0,0,1,4.85-51.353a44.373,44.373,0,0,1,22.5-5.673,44.377,44.377,0,0,1,22.5,5.673A39.514,39.514,0,0,1,65.32-35.062Q70.9-24.446,70.9-10.354t-5.58,24.8A40,40,0,0,1,49.859,30.92a43.828,43.828,0,0,1-22.5,5.763" transform="translate(1208.071 2150.637)" fill="#fff"/>
    <path id="Pfad_2107" data-name="Pfad 2107" d="M152.245-202.022h18.044v-8.484H152.245Z" transform="translate(978.932 2350.882)" fill="#fff"/>
    <path id="Pfad_2108" data-name="Pfad 2108" d="M54.5-206.484H223.7v-9.087H54.5Z" transform="translate(907.817 2347.197)" fill="#fff"/>
    <path id="Pfad_2109" data-name="Pfad 2109" d="M27.354,54.8A66.225,66.225,0,0,0,60.2,46.478a61.076,61.076,0,0,0,23.51-23.246,66.032,66.032,0,0,0,8.6-33.586,65.538,65.538,0,0,0-8.6-33.5A61.279,61.279,0,0,0,60.2-67a66.226,66.226,0,0,0-32.844-8.328A65.851,65.851,0,0,0-5.306-67a61.875,61.875,0,0,0-23.6,23.152,64.989,64.989,0,0,0-8.691,33.5,65.477,65.477,0,0,0,8.691,33.586,61.666,61.666,0,0,0,23.6,23.246A65.85,65.85,0,0,0,27.354,54.8m0-18.122A43.824,43.824,0,0,1,4.85,30.92,39.971,39.971,0,0,1-10.612,14.447q-5.582-10.707-5.58-24.8t5.58-24.709A39.481,39.481,0,0,1,4.85-51.353a44.373,44.373,0,0,1,22.5-5.673,44.377,44.377,0,0,1,22.5,5.673A39.514,39.514,0,0,1,65.32-35.062Q70.9-24.446,70.9-10.354t-5.58,24.8A40,40,0,0,1,49.859,30.92a43.828,43.828,0,0,1-22.5,5.763" transform="translate(848.349 2150.975)" fill="#fff"/>
    <path id="Pfad_2111" data-name="Pfad 2111" d="M27.354,54.8A66.208,66.208,0,0,0,60.2,46.477a61.059,61.059,0,0,0,23.51-23.244,66.032,66.032,0,0,0,8.6-33.586,65.538,65.538,0,0,0-8.6-33.5A61.279,61.279,0,0,0,60.2-67a66.226,66.226,0,0,0-32.844-8.328A65.851,65.851,0,0,0-5.306-67a61.875,61.875,0,0,0-23.6,23.152,64.989,64.989,0,0,0-8.691,33.5,65.477,65.477,0,0,0,8.691,33.586,61.649,61.649,0,0,0,23.6,23.244A65.833,65.833,0,0,0,27.354,54.8m0-18.122A43.824,43.824,0,0,1,4.85,30.92,39.971,39.971,0,0,1-10.612,14.447q-5.582-10.707-5.58-24.8t5.58-24.709A39.481,39.481,0,0,1,4.85-51.353a44.373,44.373,0,0,1,22.5-5.673,44.377,44.377,0,0,1,22.5,5.673A39.514,39.514,0,0,1,65.32-35.062Q70.9-24.446,70.9-10.354t-5.58,24.8A40,40,0,0,1,49.859,30.92a43.828,43.828,0,0,1-22.5,5.763" transform="translate(1028.379 2020.84)" fill="#fff"/>
    <path id="Pfad_2112" data-name="Pfad 2112" d="M-49.717-273.33H137.529V-290.9H-49.717Z" transform="translate(832 2292.392)" fill="#fff"/>
    <path id="Pfad_2113" data-name="Pfad 2113" d="M54.5-352.488H223.7v-8.484H54.5Z" transform="translate(907.817 2241.414)" fill="#fff"/>
    <path id="Pfad_2114" data-name="Pfad 2114" d="M27.354,54.8A66.208,66.208,0,0,0,60.2,46.477a61.052,61.052,0,0,0,23.51-23.246,66.021,66.021,0,0,0,8.6-33.585,65.538,65.538,0,0,0-8.6-33.5A61.279,61.279,0,0,0,60.2-67a66.226,66.226,0,0,0-32.844-8.328A65.851,65.851,0,0,0-5.306-67a61.875,61.875,0,0,0-23.6,23.152,64.989,64.989,0,0,0-8.691,33.5,65.467,65.467,0,0,0,8.691,33.585,61.642,61.642,0,0,0,23.6,23.246A65.833,65.833,0,0,0,27.354,54.8m0-18.122A43.824,43.824,0,0,1,4.85,30.92,39.971,39.971,0,0,1-10.612,14.447q-5.582-10.707-5.58-24.8t5.58-24.709A39.481,39.481,0,0,1,4.85-51.353a44.374,44.374,0,0,1,22.5-5.675,44.378,44.378,0,0,1,22.5,5.675A39.514,39.514,0,0,1,65.32-35.062Q70.9-24.446,70.9-10.354t-5.58,24.8A40,40,0,0,1,49.859,30.92a43.828,43.828,0,0,1-22.5,5.763" transform="translate(848.349 1890.705)" fill="#fff"/>
    <path id="Pfad_2116" data-name="Pfad 2116" d="M27.354,54.8A66.225,66.225,0,0,0,60.2,46.478a61.076,61.076,0,0,0,23.51-23.246,66.032,66.032,0,0,0,8.6-33.586,65.538,65.538,0,0,0-8.6-33.5A61.279,61.279,0,0,0,60.2-67a66.226,66.226,0,0,0-32.844-8.328A65.851,65.851,0,0,0-5.306-67a61.875,61.875,0,0,0-23.6,23.152,64.989,64.989,0,0,0-8.691,33.5,65.477,65.477,0,0,0,8.691,33.586,61.666,61.666,0,0,0,23.6,23.246A65.85,65.85,0,0,0,27.354,54.8m0-18.122A43.824,43.824,0,0,1,4.85,30.92,39.971,39.971,0,0,1-10.612,14.447q-5.582-10.707-5.58-24.8t5.58-24.709A39.481,39.481,0,0,1,4.85-51.353a44.373,44.373,0,0,1,22.5-5.673,44.377,44.377,0,0,1,22.5,5.673A39.514,39.514,0,0,1,65.32-35.062Q70.9-24.446,70.9-10.354t-5.58,24.8A40,40,0,0,1,49.859,30.92a43.828,43.828,0,0,1-22.5,5.763" transform="translate(1208.071 2150.975)" fill="#fff"/>
    <path id="Pfad_2118" data-name="Pfad 2118" d="M152.245-206.484h18.044v-9.087H152.245Z" transform="translate(978.932 2347.197)" fill="#fff"/>
    <path id="Pfad_2119" data-name="Pfad 2119" d="M158.513-273.329H334.984V-290.9H158.513Z" transform="translate(983.492 2292.391)" fill="#fff"/>
    <path id="Pfad_2120" data-name="Pfad 2120" d="M27.354,54.8A66.208,66.208,0,0,0,60.2,46.477a61.052,61.052,0,0,0,23.51-23.246,66.021,66.021,0,0,0,8.6-33.585,65.538,65.538,0,0,0-8.6-33.5A61.279,61.279,0,0,0,60.2-67a66.226,66.226,0,0,0-32.844-8.328A65.851,65.851,0,0,0-5.306-67a61.875,61.875,0,0,0-23.6,23.152,64.989,64.989,0,0,0-8.691,33.5,65.467,65.467,0,0,0,8.691,33.585,61.642,61.642,0,0,0,23.6,23.246A65.833,65.833,0,0,0,27.354,54.8m0-18.122A43.824,43.824,0,0,1,4.85,30.92,39.971,39.971,0,0,1-10.612,14.447q-5.582-10.707-5.58-24.8t5.58-24.709A39.481,39.481,0,0,1,4.85-51.353a44.374,44.374,0,0,1,22.5-5.675,44.378,44.378,0,0,1,22.5,5.675A39.514,39.514,0,0,1,65.32-35.062Q70.9-24.446,70.9-10.354t-5.58,24.8A40,40,0,0,1,49.859,30.92a43.828,43.828,0,0,1-22.5,5.763" transform="translate(1208.071 1890.705)" fill="#fff"/>
    <path id="Pfad_2122" data-name="Pfad 2122" d="M152.245-352.488h18.044v-8.484H152.245Z" transform="translate(978.932 2241.414)" fill="#fff"/>
    <path id="Pfad_2123" data-name="Pfad 2123" d="M54.5-356.949H223.7v-9.089H54.5Z" transform="translate(907.817 2237.729)" fill="#fff"/>
    <path id="Pfad_2124" data-name="Pfad 2124" d="M27.354,54.8A66.208,66.208,0,0,0,60.2,46.477a61.059,61.059,0,0,0,23.51-23.244,66.032,66.032,0,0,0,8.6-33.586,65.538,65.538,0,0,0-8.6-33.5A61.279,61.279,0,0,0,60.2-67a66.226,66.226,0,0,0-32.844-8.328A65.851,65.851,0,0,0-5.306-67a61.875,61.875,0,0,0-23.6,23.152,64.989,64.989,0,0,0-8.691,33.5,65.477,65.477,0,0,0,8.691,33.586,61.649,61.649,0,0,0,23.6,23.244A65.833,65.833,0,0,0,27.354,54.8m0-18.122A43.824,43.824,0,0,1,4.85,30.92,39.971,39.971,0,0,1-10.612,14.447q-5.582-10.707-5.58-24.8t5.58-24.709A39.481,39.481,0,0,1,4.85-51.353a44.373,44.373,0,0,1,22.5-5.673,44.377,44.377,0,0,1,22.5,5.673A39.514,39.514,0,0,1,65.32-35.062Q70.9-24.446,70.9-10.354t-5.58,24.8A40,40,0,0,1,49.859,30.92a43.828,43.828,0,0,1-22.5,5.763" transform="translate(848.349 1891.043)" fill="#fff"/>
    <path id="Pfad_2126" data-name="Pfad 2126" d="M27.354,54.8A66.208,66.208,0,0,0,60.2,46.477a61.059,61.059,0,0,0,23.51-23.244,66.032,66.032,0,0,0,8.6-33.586,65.543,65.543,0,0,0-8.6-33.5A61.279,61.279,0,0,0,60.2-67a66.226,66.226,0,0,0-32.844-8.328A65.851,65.851,0,0,0-5.306-67a61.875,61.875,0,0,0-23.6,23.152,64.993,64.993,0,0,0-8.691,33.5,65.477,65.477,0,0,0,8.691,33.586,61.649,61.649,0,0,0,23.6,23.244A65.833,65.833,0,0,0,27.354,54.8m0-18.122A43.824,43.824,0,0,1,4.85,30.92,39.971,39.971,0,0,1-10.612,14.447q-5.582-10.707-5.58-24.8t5.58-24.709A39.481,39.481,0,0,1,4.85-51.353a44.373,44.373,0,0,1,22.5-5.673,44.377,44.377,0,0,1,22.5,5.673A39.514,39.514,0,0,1,65.32-35.062Q70.9-24.446,70.9-10.354t-5.58,24.8A40,40,0,0,1,49.859,30.92a43.828,43.828,0,0,1-22.5,5.763" transform="translate(1028.379 1760.908)" fill="#fff"/>
    <path id="Pfad_2127" data-name="Pfad 2127" d="M-49.717-423.8H137.529v-17.572H-49.717Z" transform="translate(832 2182.924)" fill="#fff"/>
    <path id="Pfad_2128" data-name="Pfad 2128" d="M54.5-502.953H223.7v-8.484H54.5Z" transform="translate(907.817 2131.948)" fill="#fff"/>
    <path id="Pfad_2129" data-name="Pfad 2129" d="M27.354,54.8A66.208,66.208,0,0,0,60.2,46.477a61.059,61.059,0,0,0,23.51-23.244,66.032,66.032,0,0,0,8.6-33.586,65.538,65.538,0,0,0-8.6-33.5A61.291,61.291,0,0,0,60.2-67a66.226,66.226,0,0,0-32.844-8.328A65.851,65.851,0,0,0-5.306-67a61.887,61.887,0,0,0-23.6,23.152,64.989,64.989,0,0,0-8.691,33.5,65.477,65.477,0,0,0,8.691,33.586,61.649,61.649,0,0,0,23.6,23.244A65.833,65.833,0,0,0,27.354,54.8m0-18.122A43.824,43.824,0,0,1,4.85,30.92,39.971,39.971,0,0,1-10.612,14.447q-5.582-10.707-5.58-24.8t5.58-24.709A39.481,39.481,0,0,1,4.85-51.353a44.373,44.373,0,0,1,22.5-5.673,44.377,44.377,0,0,1,22.5,5.673A39.514,39.514,0,0,1,65.32-35.062Q70.9-24.446,70.9-10.354t-5.58,24.8A40,40,0,0,1,49.859,30.92a43.828,43.828,0,0,1-22.5,5.763" transform="translate(848.349 1630.773)" fill="#fff"/>
    <path id="Pfad_2131" data-name="Pfad 2131" d="M27.354,54.8A66.208,66.208,0,0,0,60.2,46.477a61.059,61.059,0,0,0,23.51-23.244,66.032,66.032,0,0,0,8.6-33.586,65.538,65.538,0,0,0-8.6-33.5A61.279,61.279,0,0,0,60.2-67a66.226,66.226,0,0,0-32.844-8.328A65.851,65.851,0,0,0-5.306-67a61.875,61.875,0,0,0-23.6,23.152,64.989,64.989,0,0,0-8.691,33.5,65.477,65.477,0,0,0,8.691,33.586,61.649,61.649,0,0,0,23.6,23.244A65.833,65.833,0,0,0,27.354,54.8m0-18.122A43.824,43.824,0,0,1,4.85,30.92,39.971,39.971,0,0,1-10.612,14.447q-5.582-10.707-5.58-24.8t5.58-24.709A39.481,39.481,0,0,1,4.85-51.353a44.373,44.373,0,0,1,22.5-5.673,44.377,44.377,0,0,1,22.5,5.673A39.514,39.514,0,0,1,65.32-35.062Q70.9-24.446,70.9-10.354t-5.58,24.8A40,40,0,0,1,49.859,30.92a43.828,43.828,0,0,1-22.5,5.763" transform="translate(1208.071 1891.043)" fill="#fff"/>
    <path id="Pfad_2133" data-name="Pfad 2133" d="M152.245-356.949h18.044v-9.089H152.245Z" transform="translate(978.932 2237.729)" fill="#fff"/>
    <path id="Pfad_2134" data-name="Pfad 2134" d="M158.513-423.795H334.984v-17.572H158.513Z" transform="translate(983.492 2182.925)" fill="#fff"/>
    <path id="Pfad_2135" data-name="Pfad 2135" d="M27.354,54.8A66.208,66.208,0,0,0,60.2,46.477a61.059,61.059,0,0,0,23.51-23.244,66.032,66.032,0,0,0,8.6-33.586,65.538,65.538,0,0,0-8.6-33.5A61.291,61.291,0,0,0,60.2-67a66.226,66.226,0,0,0-32.844-8.328A65.851,65.851,0,0,0-5.306-67a61.887,61.887,0,0,0-23.6,23.152,64.989,64.989,0,0,0-8.691,33.5,65.477,65.477,0,0,0,8.691,33.586,61.649,61.649,0,0,0,23.6,23.244A65.833,65.833,0,0,0,27.354,54.8m0-18.122A43.824,43.824,0,0,1,4.85,30.92,39.971,39.971,0,0,1-10.612,14.447q-5.582-10.707-5.58-24.8t5.58-24.709A39.481,39.481,0,0,1,4.85-51.353a44.373,44.373,0,0,1,22.5-5.673,44.377,44.377,0,0,1,22.5,5.673A39.514,39.514,0,0,1,65.32-35.062Q70.9-24.446,70.9-10.354t-5.58,24.8A40,40,0,0,1,49.859,30.92a43.828,43.828,0,0,1-22.5,5.763" transform="translate(1208.071 1630.773)" fill="#fff"/>
    <path id="Pfad_2137" data-name="Pfad 2137" d="M152.245-502.953h18.044v-8.484H152.245Z" transform="translate(978.932 2131.948)" fill="#fff"/>
    <path id="Pfad_2138" data-name="Pfad 2138" d="M54.5-507.414H223.7V-516.5H54.5Z" transform="translate(907.817 2128.263)" fill="#fff"/>
    <path id="Pfad_2139" data-name="Pfad 2139" d="M27.354,54.8A66.208,66.208,0,0,0,60.2,46.477a61.048,61.048,0,0,0,23.51-23.244,66.032,66.032,0,0,0,8.6-33.586,65.543,65.543,0,0,0-8.6-33.5A61.279,61.279,0,0,0,60.2-67a66.226,66.226,0,0,0-32.844-8.328A65.851,65.851,0,0,0-5.306-67a61.875,61.875,0,0,0-23.6,23.152,64.993,64.993,0,0,0-8.691,33.5,65.477,65.477,0,0,0,8.691,33.586,61.637,61.637,0,0,0,23.6,23.244A65.833,65.833,0,0,0,27.354,54.8m0-18.122A43.824,43.824,0,0,1,4.85,30.92,39.971,39.971,0,0,1-10.612,14.447q-5.582-10.707-5.58-24.8t5.58-24.709A39.481,39.481,0,0,1,4.85-51.353a44.373,44.373,0,0,1,22.5-5.673,44.377,44.377,0,0,1,22.5,5.673A39.514,39.514,0,0,1,65.32-35.062Q70.9-24.446,70.9-10.354t-5.58,24.8A40,40,0,0,1,49.859,30.92a43.828,43.828,0,0,1-22.5,5.763" transform="translate(848.349 1631.111)" fill="#fff"/>
    <path id="Pfad_2141" data-name="Pfad 2141" d="M27.354,54.8A66.208,66.208,0,0,0,60.2,46.477a61.052,61.052,0,0,0,23.51-23.246,66.021,66.021,0,0,0,8.6-33.585,65.538,65.538,0,0,0-8.6-33.5A61.279,61.279,0,0,0,60.2-67a66.226,66.226,0,0,0-32.844-8.328A65.851,65.851,0,0,0-5.306-67a61.875,61.875,0,0,0-23.6,23.152,64.989,64.989,0,0,0-8.691,33.5,65.467,65.467,0,0,0,8.691,33.585,61.642,61.642,0,0,0,23.6,23.246A65.833,65.833,0,0,0,27.354,54.8m0-18.122A43.824,43.824,0,0,1,4.85,30.92,39.982,39.982,0,0,1-10.612,14.447q-5.582-10.707-5.58-24.8t5.58-24.709A39.481,39.481,0,0,1,4.85-51.353a44.374,44.374,0,0,1,22.5-5.675,44.378,44.378,0,0,1,22.5,5.675A39.514,39.514,0,0,1,65.32-35.062Q70.9-24.446,70.9-10.354t-5.58,24.8A40.015,40.015,0,0,1,49.859,30.92a43.828,43.828,0,0,1-22.5,5.763" transform="translate(1028.379 1500.976)" fill="#fff"/>
    <path id="Pfad_2142" data-name="Pfad 2142" d="M-49.717-574.261H137.529v-17.572H-49.717Z" transform="translate(832 2073.458)" fill="#fff"/>
    <path id="Pfad_2145" data-name="Pfad 2145" d="M27.354,54.8A66.208,66.208,0,0,0,60.2,46.477a61.048,61.048,0,0,0,23.51-23.244,66.032,66.032,0,0,0,8.6-33.586,65.543,65.543,0,0,0-8.6-33.5A61.279,61.279,0,0,0,60.2-67a66.226,66.226,0,0,0-32.844-8.328A65.851,65.851,0,0,0-5.306-67a61.875,61.875,0,0,0-23.6,23.152,64.993,64.993,0,0,0-8.691,33.5,65.477,65.477,0,0,0,8.691,33.586,61.637,61.637,0,0,0,23.6,23.244A65.833,65.833,0,0,0,27.354,54.8m0-18.122A43.824,43.824,0,0,1,4.85,30.92,39.971,39.971,0,0,1-10.612,14.447q-5.582-10.707-5.58-24.8t5.58-24.709A39.481,39.481,0,0,1,4.85-51.353a44.373,44.373,0,0,1,22.5-5.673,44.377,44.377,0,0,1,22.5,5.673A39.514,39.514,0,0,1,65.32-35.062Q70.9-24.446,70.9-10.354t-5.58,24.8A40,40,0,0,1,49.859,30.92a43.828,43.828,0,0,1-22.5,5.763" transform="translate(1208.071 1631.111)" fill="#fff"/>
    <path id="Pfad_2147" data-name="Pfad 2147" d="M152.245-507.414h18.044V-516.5H152.245Z" transform="translate(978.932 2128.263)" fill="#fff"/>
    <path id="Pfad_2148" data-name="Pfad 2148" d="M158.513-574.261H334.984v-17.572H158.513Z" transform="translate(983.492 2073.458)" fill="#fff"/>
    <path id="Pfad_2149" data-name="Pfad 2149" d="M27.354,54.8A66.208,66.208,0,0,0,60.2,46.477a61.052,61.052,0,0,0,23.51-23.246,66.021,66.021,0,0,0,8.6-33.585,65.538,65.538,0,0,0-8.6-33.5A61.279,61.279,0,0,0,60.2-67a66.226,66.226,0,0,0-32.844-8.328A65.851,65.851,0,0,0-5.306-67a61.875,61.875,0,0,0-23.6,23.152,64.989,64.989,0,0,0-8.691,33.5,65.467,65.467,0,0,0,8.691,33.585,61.642,61.642,0,0,0,23.6,23.246A65.833,65.833,0,0,0,27.354,54.8m0-18.122A43.824,43.824,0,0,1,4.85,30.92,39.982,39.982,0,0,1-10.612,14.447q-5.582-10.71-5.58-24.8t5.58-24.709A39.481,39.481,0,0,1,4.85-51.353a44.374,44.374,0,0,1,22.5-5.675,44.378,44.378,0,0,1,22.5,5.675A39.514,39.514,0,0,1,65.32-35.062Q70.9-24.446,70.9-10.354t-5.58,24.8A40.015,40.015,0,0,1,49.859,30.92a43.828,43.828,0,0,1-22.5,5.763" transform="translate(1208.071 1370.841)" fill="#fff"/>
  </g>
</svg>
