<svg xmlns="http://www.w3.org/2000/svg" width="385.44" height="934.5" viewBox="0 0 385.44 934.5">
  <g id="Pattern" transform="translate(1167.723 2230.01) rotate(180)" opacity="0.5">
    <path id="Pfad_2086" data-name="Pfad 2086" d="M9.092,18.217A47.593,47.593,0,0,0,32.7,12.23,43.892,43.892,0,0,0,49.6-4.479a47.467,47.467,0,0,0,6.182-24.144A47.112,47.112,0,0,0,49.6-52.7,44.05,44.05,0,0,0,32.7-69.344a47.606,47.606,0,0,0-23.61-5.987,47.337,47.337,0,0,0-23.478,5.987A44.479,44.479,0,0,0-31.351-52.7,46.717,46.717,0,0,0-37.6-28.622,47.068,47.068,0,0,0-31.351-4.479,44.316,44.316,0,0,0-14.386,12.23,47.324,47.324,0,0,0,9.092,18.217m0-13.027A31.5,31.5,0,0,1-7.085,1.047,28.733,28.733,0,0,1-18.2-10.795,38.026,38.026,0,0,1-22.21-28.622,37.631,37.631,0,0,1-18.2-46.384,28.381,28.381,0,0,1-7.085-58.095,31.9,31.9,0,0,1,9.092-62.174a31.9,31.9,0,0,1,16.177,4.079,28.4,28.4,0,0,1,11.114,11.71,37.66,37.66,0,0,1,4.011,17.762,38.057,38.057,0,0,1-4.011,17.828A28.757,28.757,0,0,1,25.269,1.047,31.506,31.506,0,0,1,9.092,5.19" transform="translate(969.759 2211.793)" fill="#ddd6c6"/>
    <path id="Pfad_2087" data-name="Pfad 2087" d="M54.5-53.943h121.63v-6.1H54.5Z" transform="translate(857.201 2149.73)" fill="#ddd6c6"/>
    <path id="Pfad_2088" data-name="Pfad 2088" d="M9.092,18.217A47.593,47.593,0,0,0,32.7,12.23,43.892,43.892,0,0,0,49.6-4.479a47.467,47.467,0,0,0,6.182-24.144A47.112,47.112,0,0,0,49.6-52.7,44.05,44.05,0,0,0,32.7-69.344a47.606,47.606,0,0,0-23.61-5.987,47.337,47.337,0,0,0-23.478,5.987A44.479,44.479,0,0,0-31.351-52.7,46.717,46.717,0,0,0-37.6-28.622,47.068,47.068,0,0,0-31.351-4.479,44.316,44.316,0,0,0-14.386,12.23,47.324,47.324,0,0,0,9.092,18.217m0-13.027A31.5,31.5,0,0,1-7.085,1.047,28.733,28.733,0,0,1-18.2-10.795,38.023,38.023,0,0,1-22.21-28.622,37.631,37.631,0,0,1-18.2-46.384,28.381,28.381,0,0,1-7.085-58.095,31.9,31.9,0,0,1,9.092-62.174a31.9,31.9,0,0,1,16.177,4.079,28.4,28.4,0,0,1,11.114,11.71,37.66,37.66,0,0,1,4.011,17.762,38.053,38.053,0,0,1-4.011,17.828A28.757,28.757,0,0,1,25.269,1.047,31.506,31.506,0,0,1,9.092,5.19" transform="translate(840.345 2118.246)" fill="#ddd6c6"/>
    <path id="Pfad_2090" data-name="Pfad 2090" d="M9.092,18.217A47.593,47.593,0,0,0,32.7,12.23,43.892,43.892,0,0,0,49.6-4.479a47.467,47.467,0,0,0,6.182-24.144A47.112,47.112,0,0,0,49.6-52.7,44.05,44.05,0,0,0,32.7-69.344a47.606,47.606,0,0,0-23.61-5.987,47.337,47.337,0,0,0-23.478,5.987A44.479,44.479,0,0,0-31.351-52.7,46.717,46.717,0,0,0-37.6-28.622,47.068,47.068,0,0,0-31.351-4.479,44.316,44.316,0,0,0-14.386,12.23,47.324,47.324,0,0,0,9.092,18.217m0-13.027A31.5,31.5,0,0,1-7.085,1.047,28.733,28.733,0,0,1-18.2-10.795,38.023,38.023,0,0,1-22.21-28.622,37.631,37.631,0,0,1-18.2-46.384,28.381,28.381,0,0,1-7.085-58.095,31.9,31.9,0,0,1,9.092-62.174a31.9,31.9,0,0,1,16.177,4.079,28.4,28.4,0,0,1,11.114,11.71,37.66,37.66,0,0,1,4.011,17.762,38.053,38.053,0,0,1-4.011,17.828A28.757,28.757,0,0,1,25.269,1.047,31.506,31.506,0,0,1,9.092,5.19" transform="translate(1098.93 2118.246)" fill="#ddd6c6"/>
    <path id="Pfad_2092" data-name="Pfad 2092" d="M152.245-53.943h12.971v-6.1H152.245Z" transform="translate(880.839 2149.73)" fill="#ddd6c6"/>
    <path id="Pfad_2093" data-name="Pfad 2093" d="M54.5-58.574h121.63v-6.532H54.5Z" transform="translate(857.201 2148.505)" fill="#ddd6c6"/>
    <path id="Pfad_2094" data-name="Pfad 2094" d="M9.092,18.217A47.593,47.593,0,0,0,32.7,12.23,43.892,43.892,0,0,0,49.6-4.479a47.467,47.467,0,0,0,6.182-24.144A47.112,47.112,0,0,0,49.6-52.7,44.05,44.05,0,0,0,32.7-69.344a47.606,47.606,0,0,0-23.61-5.987,47.337,47.337,0,0,0-23.478,5.987A44.479,44.479,0,0,0-31.351-52.7,46.717,46.717,0,0,0-37.6-28.622,47.068,47.068,0,0,0-31.351-4.479,44.316,44.316,0,0,0-14.386,12.23,47.324,47.324,0,0,0,9.092,18.217m0-13.027A31.5,31.5,0,0,1-7.085,1.047,28.733,28.733,0,0,1-18.2-10.795,38.023,38.023,0,0,1-22.21-28.622,37.631,37.631,0,0,1-18.2-46.384,28.381,28.381,0,0,1-7.085-58.095,31.9,31.9,0,0,1,9.092-62.173a31.9,31.9,0,0,1,16.177,4.078,28.4,28.4,0,0,1,11.114,11.71,37.66,37.66,0,0,1,4.011,17.762,38.053,38.053,0,0,1-4.011,17.828A28.757,28.757,0,0,1,25.269,1.047,31.506,31.506,0,0,1,9.092,5.19" transform="translate(840.345 2118.489)" fill="#ddd6c6"/>
    <path id="Pfad_2096" data-name="Pfad 2096" d="M9.092,18.217A47.593,47.593,0,0,0,32.7,12.23,43.892,43.892,0,0,0,49.6-4.479a47.467,47.467,0,0,0,6.182-24.144A47.112,47.112,0,0,0,49.6-52.7,44.05,44.05,0,0,0,32.7-69.344a47.606,47.606,0,0,0-23.61-5.987,47.337,47.337,0,0,0-23.478,5.987A44.479,44.479,0,0,0-31.351-52.7,46.717,46.717,0,0,0-37.6-28.622,47.068,47.068,0,0,0-31.351-4.479,44.316,44.316,0,0,0-14.386,12.23,47.324,47.324,0,0,0,9.092,18.217m0-13.027A31.5,31.5,0,0,1-7.085,1.047,28.733,28.733,0,0,1-18.2-10.795,38.023,38.023,0,0,1-22.21-28.622,37.631,37.631,0,0,1-18.2-46.384,28.381,28.381,0,0,1-7.085-58.095,31.9,31.9,0,0,1,9.092-62.173a31.9,31.9,0,0,1,16.177,4.078,28.4,28.4,0,0,1,11.114,11.71,37.66,37.66,0,0,1,4.011,17.762,38.053,38.053,0,0,1-4.011,17.828A28.757,28.757,0,0,1,25.269,1.047,31.506,31.506,0,0,1,9.092,5.19" transform="translate(969.759 2024.942)" fill="#ddd6c6"/>
    <path id="Pfad_2097" data-name="Pfad 2097" d="M-49.717-127.805h134.6v-12.632h-134.6Z" transform="translate(832 2130.289)" fill="#ddd6c6"/>
    <path id="Pfad_2098" data-name="Pfad 2098" d="M54.5-204.407h121.63v-6.1H54.5Z" transform="translate(857.201 2113.344)" fill="#ddd6c6"/>
    <path id="Pfad_2099" data-name="Pfad 2099" d="M9.092,18.217A47.593,47.593,0,0,0,32.7,12.23,43.892,43.892,0,0,0,49.6-4.479a47.467,47.467,0,0,0,6.182-24.144A47.112,47.112,0,0,0,49.6-52.7,44.05,44.05,0,0,0,32.7-69.344a47.606,47.606,0,0,0-23.61-5.987,47.337,47.337,0,0,0-23.478,5.987A44.479,44.479,0,0,0-31.351-52.7,46.717,46.717,0,0,0-37.6-28.622,47.068,47.068,0,0,0-31.351-4.479,44.316,44.316,0,0,0-14.386,12.23,47.324,47.324,0,0,0,9.092,18.217m0-13.027A31.5,31.5,0,0,1-7.085,1.047,28.733,28.733,0,0,1-18.2-10.795,38.023,38.023,0,0,1-22.21-28.622,37.631,37.631,0,0,1-18.2-46.384,28.381,28.381,0,0,1-7.085-58.095,31.9,31.9,0,0,1,9.092-62.173a31.9,31.9,0,0,1,16.177,4.078,28.4,28.4,0,0,1,11.114,11.71,37.66,37.66,0,0,1,4.011,17.762,38.053,38.053,0,0,1-4.011,17.828A28.757,28.757,0,0,1,25.269,1.047,31.506,31.506,0,0,1,9.092,5.19" transform="translate(840.345 1931.395)" fill="#ddd6c6"/>
    <path id="Pfad_2101" data-name="Pfad 2101" d="M9.092,18.217A47.593,47.593,0,0,0,32.7,12.23,43.892,43.892,0,0,0,49.6-4.479a47.467,47.467,0,0,0,6.182-24.144A47.112,47.112,0,0,0,49.6-52.7,44.05,44.05,0,0,0,32.7-69.344a47.606,47.606,0,0,0-23.61-5.987,47.337,47.337,0,0,0-23.478,5.987A44.479,44.479,0,0,0-31.351-52.7,46.717,46.717,0,0,0-37.6-28.622,47.068,47.068,0,0,0-31.351-4.479,44.316,44.316,0,0,0-14.386,12.23,47.324,47.324,0,0,0,9.092,18.217m0-13.027A31.5,31.5,0,0,1-7.085,1.047,28.733,28.733,0,0,1-18.2-10.795,38.023,38.023,0,0,1-22.21-28.622,37.631,37.631,0,0,1-18.2-46.384,28.381,28.381,0,0,1-7.085-58.095,31.9,31.9,0,0,1,9.092-62.173a31.9,31.9,0,0,1,16.177,4.078,28.4,28.4,0,0,1,11.114,11.71,37.66,37.66,0,0,1,4.011,17.762,38.053,38.053,0,0,1-4.011,17.828A28.757,28.757,0,0,1,25.269,1.047,31.506,31.506,0,0,1,9.092,5.19" transform="translate(1098.93 2118.489)" fill="#ddd6c6"/>
    <path id="Pfad_2103" data-name="Pfad 2103" d="M152.245-58.574h12.971v-6.532H152.245Z" transform="translate(880.839 2148.505)" fill="#ddd6c6"/>
    <path id="Pfad_2104" data-name="Pfad 2104" d="M158.513-127.805H285.369v-12.632H158.513Z" transform="translate(882.355 2130.289)" fill="#ddd6c6"/>
    <path id="Pfad_2105" data-name="Pfad 2105" d="M9.092,18.217A47.593,47.593,0,0,0,32.7,12.23,43.892,43.892,0,0,0,49.6-4.479a47.467,47.467,0,0,0,6.182-24.144A47.112,47.112,0,0,0,49.6-52.7,44.05,44.05,0,0,0,32.7-69.344a47.606,47.606,0,0,0-23.61-5.987,47.337,47.337,0,0,0-23.478,5.987A44.479,44.479,0,0,0-31.351-52.7,46.717,46.717,0,0,0-37.6-28.622,47.068,47.068,0,0,0-31.351-4.479,44.316,44.316,0,0,0-14.386,12.23,47.324,47.324,0,0,0,9.092,18.217m0-13.027A31.5,31.5,0,0,1-7.085,1.047,28.733,28.733,0,0,1-18.2-10.795,38.023,38.023,0,0,1-22.21-28.622,37.631,37.631,0,0,1-18.2-46.384,28.381,28.381,0,0,1-7.085-58.095,31.9,31.9,0,0,1,9.092-62.173a31.9,31.9,0,0,1,16.177,4.078,28.4,28.4,0,0,1,11.114,11.71,37.66,37.66,0,0,1,4.011,17.762,38.053,38.053,0,0,1-4.011,17.828A28.757,28.757,0,0,1,25.269,1.047,31.506,31.506,0,0,1,9.092,5.19" transform="translate(1098.93 1931.395)" fill="#ddd6c6"/>
    <path id="Pfad_2107" data-name="Pfad 2107" d="M152.245-204.407h12.971v-6.1H152.245Z" transform="translate(880.839 2113.344)" fill="#ddd6c6"/>
    <path id="Pfad_2108" data-name="Pfad 2108" d="M54.5-209.039h121.63v-6.532H54.5Z" transform="translate(857.201 2112.119)" fill="#ddd6c6"/>
    <path id="Pfad_2109" data-name="Pfad 2109" d="M9.092,18.217A47.605,47.605,0,0,0,32.7,12.231,43.9,43.9,0,0,0,49.6-4.479a47.467,47.467,0,0,0,6.182-24.144A47.112,47.112,0,0,0,49.6-52.7,44.05,44.05,0,0,0,32.7-69.344a47.606,47.606,0,0,0-23.61-5.987,47.337,47.337,0,0,0-23.478,5.987A44.479,44.479,0,0,0-31.351-52.7,46.717,46.717,0,0,0-37.6-28.622,47.068,47.068,0,0,0-31.351-4.479a44.328,44.328,0,0,0,16.966,16.71A47.336,47.336,0,0,0,9.092,18.217m0-13.027A31.5,31.5,0,0,1-7.085,1.047,28.733,28.733,0,0,1-18.2-10.795,38.023,38.023,0,0,1-22.21-28.622,37.631,37.631,0,0,1-18.2-46.384,28.381,28.381,0,0,1-7.085-58.095,31.9,31.9,0,0,1,9.092-62.173a31.9,31.9,0,0,1,16.177,4.078,28.4,28.4,0,0,1,11.114,11.71,37.66,37.66,0,0,1,4.011,17.762,38.053,38.053,0,0,1-4.011,17.828A28.757,28.757,0,0,1,25.269,1.047,31.506,31.506,0,0,1,9.092,5.19" transform="translate(840.345 1931.638)" fill="#ddd6c6"/>
    <path id="Pfad_2111" data-name="Pfad 2111" d="M9.092,18.217A47.593,47.593,0,0,0,32.7,12.23,43.892,43.892,0,0,0,49.6-4.479a47.467,47.467,0,0,0,6.182-24.144A47.112,47.112,0,0,0,49.6-52.7,44.05,44.05,0,0,0,32.7-69.344a47.606,47.606,0,0,0-23.61-5.987,47.337,47.337,0,0,0-23.478,5.987A44.479,44.479,0,0,0-31.351-52.7,46.717,46.717,0,0,0-37.6-28.622,47.068,47.068,0,0,0-31.351-4.479,44.316,44.316,0,0,0-14.386,12.23,47.324,47.324,0,0,0,9.092,18.217m0-13.027A31.5,31.5,0,0,1-7.085,1.047,28.733,28.733,0,0,1-18.2-10.795,38.023,38.023,0,0,1-22.21-28.622,37.631,37.631,0,0,1-18.2-46.384,28.381,28.381,0,0,1-7.085-58.095,31.9,31.9,0,0,1,9.092-62.173a31.9,31.9,0,0,1,16.177,4.078,28.4,28.4,0,0,1,11.114,11.71,37.66,37.66,0,0,1,4.011,17.762,38.053,38.053,0,0,1-4.011,17.828A28.757,28.757,0,0,1,25.269,1.047,31.506,31.506,0,0,1,9.092,5.19" transform="translate(969.759 1838.09)" fill="#ddd6c6"/>
    <path id="Pfad_2112" data-name="Pfad 2112" d="M-49.717-278.27h134.6V-290.9h-134.6Z" transform="translate(832 2093.903)" fill="#ddd6c6"/>
    <path id="Pfad_2113" data-name="Pfad 2113" d="M54.5-354.873h121.63v-6.1H54.5Z" transform="translate(857.201 2076.958)" fill="#ddd6c6"/>
    <path id="Pfad_2114" data-name="Pfad 2114" d="M9.092,18.217A47.593,47.593,0,0,0,32.7,12.23,43.887,43.887,0,0,0,49.6-4.48a47.459,47.459,0,0,0,6.182-24.142A47.112,47.112,0,0,0,49.6-52.7,44.05,44.05,0,0,0,32.7-69.344a47.606,47.606,0,0,0-23.61-5.987,47.337,47.337,0,0,0-23.478,5.987A44.479,44.479,0,0,0-31.351-52.7,46.717,46.717,0,0,0-37.6-28.622,47.06,47.06,0,0,0-31.351-4.48,44.311,44.311,0,0,0-14.386,12.23,47.324,47.324,0,0,0,9.092,18.217m0-13.027A31.5,31.5,0,0,1-7.085,1.047,28.733,28.733,0,0,1-18.2-10.795,38.023,38.023,0,0,1-22.21-28.622,37.631,37.631,0,0,1-18.2-46.384,28.381,28.381,0,0,1-7.085-58.095,31.9,31.9,0,0,1,9.092-62.174a31.9,31.9,0,0,1,16.177,4.079,28.4,28.4,0,0,1,11.114,11.71,37.66,37.66,0,0,1,4.011,17.762,38.053,38.053,0,0,1-4.011,17.828A28.757,28.757,0,0,1,25.269,1.047,31.506,31.506,0,0,1,9.092,5.19" transform="translate(840.345 1744.543)" fill="#ddd6c6"/>
    <path id="Pfad_2116" data-name="Pfad 2116" d="M9.092,18.217A47.605,47.605,0,0,0,32.7,12.231,43.9,43.9,0,0,0,49.6-4.479a47.467,47.467,0,0,0,6.182-24.144A47.112,47.112,0,0,0,49.6-52.7,44.05,44.05,0,0,0,32.7-69.344a47.606,47.606,0,0,0-23.61-5.987,47.337,47.337,0,0,0-23.478,5.987A44.479,44.479,0,0,0-31.351-52.7,46.717,46.717,0,0,0-37.6-28.622,47.068,47.068,0,0,0-31.351-4.479a44.328,44.328,0,0,0,16.966,16.71A47.336,47.336,0,0,0,9.092,18.217m0-13.027A31.5,31.5,0,0,1-7.085,1.047,28.733,28.733,0,0,1-18.2-10.795,38.023,38.023,0,0,1-22.21-28.622,37.631,37.631,0,0,1-18.2-46.384,28.381,28.381,0,0,1-7.085-58.095,31.9,31.9,0,0,1,9.092-62.173a31.9,31.9,0,0,1,16.177,4.078,28.4,28.4,0,0,1,11.114,11.71,37.66,37.66,0,0,1,4.011,17.762,38.053,38.053,0,0,1-4.011,17.828A28.757,28.757,0,0,1,25.269,1.047,31.506,31.506,0,0,1,9.092,5.19" transform="translate(1098.93 1931.638)" fill="#ddd6c6"/>
    <path id="Pfad_2118" data-name="Pfad 2118" d="M152.245-209.039h12.971v-6.532H152.245Z" transform="translate(880.839 2112.119)" fill="#ddd6c6"/>
    <path id="Pfad_2119" data-name="Pfad 2119" d="M158.513-278.27H285.369V-290.9H158.513Z" transform="translate(882.355 2093.903)" fill="#ddd6c6"/>
    <path id="Pfad_2120" data-name="Pfad 2120" d="M9.092,18.217A47.593,47.593,0,0,0,32.7,12.23,43.887,43.887,0,0,0,49.6-4.48a47.459,47.459,0,0,0,6.182-24.142A47.112,47.112,0,0,0,49.6-52.7,44.05,44.05,0,0,0,32.7-69.344a47.606,47.606,0,0,0-23.61-5.987,47.337,47.337,0,0,0-23.478,5.987A44.479,44.479,0,0,0-31.351-52.7,46.717,46.717,0,0,0-37.6-28.622,47.06,47.06,0,0,0-31.351-4.48,44.311,44.311,0,0,0-14.386,12.23,47.324,47.324,0,0,0,9.092,18.217m0-13.027A31.5,31.5,0,0,1-7.085,1.047,28.733,28.733,0,0,1-18.2-10.795,38.023,38.023,0,0,1-22.21-28.622,37.631,37.631,0,0,1-18.2-46.384,28.381,28.381,0,0,1-7.085-58.095,31.9,31.9,0,0,1,9.092-62.174a31.9,31.9,0,0,1,16.177,4.079,28.4,28.4,0,0,1,11.114,11.71,37.66,37.66,0,0,1,4.011,17.762,38.053,38.053,0,0,1-4.011,17.828A28.757,28.757,0,0,1,25.269,1.047,31.506,31.506,0,0,1,9.092,5.19" transform="translate(1098.93 1744.543)" fill="#ddd6c6"/>
    <path id="Pfad_2122" data-name="Pfad 2122" d="M152.245-354.873h12.971v-6.1H152.245Z" transform="translate(880.839 2076.958)" fill="#ddd6c6"/>
    <path id="Pfad_2123" data-name="Pfad 2123" d="M54.5-359.5h121.63v-6.533H54.5Z" transform="translate(857.201 2075.733)" fill="#ddd6c6"/>
    <path id="Pfad_2124" data-name="Pfad 2124" d="M9.092,18.217A47.593,47.593,0,0,0,32.7,12.23,43.892,43.892,0,0,0,49.6-4.479a47.467,47.467,0,0,0,6.182-24.144A47.112,47.112,0,0,0,49.6-52.7,44.05,44.05,0,0,0,32.7-69.344a47.606,47.606,0,0,0-23.61-5.987,47.337,47.337,0,0,0-23.478,5.987A44.479,44.479,0,0,0-31.351-52.7,46.717,46.717,0,0,0-37.6-28.622,47.068,47.068,0,0,0-31.351-4.479,44.316,44.316,0,0,0-14.386,12.23,47.324,47.324,0,0,0,9.092,18.217m0-13.027A31.5,31.5,0,0,1-7.085,1.047,28.733,28.733,0,0,1-18.2-10.795,38.023,38.023,0,0,1-22.21-28.622,37.631,37.631,0,0,1-18.2-46.384,28.381,28.381,0,0,1-7.085-58.095,31.9,31.9,0,0,1,9.092-62.173a31.9,31.9,0,0,1,16.177,4.078,28.4,28.4,0,0,1,11.114,11.71,37.66,37.66,0,0,1,4.011,17.762,38.053,38.053,0,0,1-4.011,17.828A28.757,28.757,0,0,1,25.269,1.047,31.506,31.506,0,0,1,9.092,5.19" transform="translate(840.345 1744.786)" fill="#ddd6c6"/>
    <path id="Pfad_2126" data-name="Pfad 2126" d="M9.092,18.217A47.593,47.593,0,0,0,32.7,12.23,43.892,43.892,0,0,0,49.6-4.479a47.467,47.467,0,0,0,6.182-24.144A47.115,47.115,0,0,0,49.6-52.7,44.05,44.05,0,0,0,32.7-69.344a47.606,47.606,0,0,0-23.61-5.987,47.337,47.337,0,0,0-23.478,5.987A44.479,44.479,0,0,0-31.351-52.7,46.72,46.72,0,0,0-37.6-28.622,47.068,47.068,0,0,0-31.351-4.479,44.316,44.316,0,0,0-14.386,12.23,47.324,47.324,0,0,0,9.092,18.217m0-13.027A31.5,31.5,0,0,1-7.085,1.047,28.733,28.733,0,0,1-18.2-10.795,38.023,38.023,0,0,1-22.21-28.622,37.631,37.631,0,0,1-18.2-46.384,28.381,28.381,0,0,1-7.085-58.095,31.9,31.9,0,0,1,9.092-62.173a31.9,31.9,0,0,1,16.177,4.078,28.4,28.4,0,0,1,11.114,11.71,37.66,37.66,0,0,1,4.011,17.762,38.053,38.053,0,0,1-4.011,17.828A28.757,28.757,0,0,1,25.269,1.047,31.506,31.506,0,0,1,9.092,5.19" transform="translate(969.759 1651.239)" fill="#ddd6c6"/>
    <path id="Pfad_2127" data-name="Pfad 2127" d="M-49.717-428.736h134.6v-12.632h-134.6Z" transform="translate(832 2057.517)" fill="#ddd6c6"/>
    <path id="Pfad_2128" data-name="Pfad 2128" d="M54.5-505.338h121.63v-6.1H54.5Z" transform="translate(857.201 2040.573)" fill="#ddd6c6"/>
    <path id="Pfad_2129" data-name="Pfad 2129" d="M9.092,18.217A47.593,47.593,0,0,0,32.7,12.23,43.892,43.892,0,0,0,49.6-4.479a47.467,47.467,0,0,0,6.182-24.144A47.112,47.112,0,0,0,49.6-52.7,44.059,44.059,0,0,0,32.7-69.344a47.606,47.606,0,0,0-23.61-5.987,47.337,47.337,0,0,0-23.478,5.987A44.487,44.487,0,0,0-31.351-52.7,46.717,46.717,0,0,0-37.6-28.622,47.068,47.068,0,0,0-31.351-4.479,44.316,44.316,0,0,0-14.386,12.23,47.324,47.324,0,0,0,9.092,18.217m0-13.027A31.5,31.5,0,0,1-7.085,1.047,28.733,28.733,0,0,1-18.2-10.795,38.023,38.023,0,0,1-22.21-28.622,37.631,37.631,0,0,1-18.2-46.384,28.381,28.381,0,0,1-7.085-58.095,31.9,31.9,0,0,1,9.092-62.173a31.9,31.9,0,0,1,16.177,4.078,28.4,28.4,0,0,1,11.114,11.71,37.66,37.66,0,0,1,4.011,17.762,38.053,38.053,0,0,1-4.011,17.828A28.757,28.757,0,0,1,25.269,1.047,31.506,31.506,0,0,1,9.092,5.19" transform="translate(840.345 1557.692)" fill="#ddd6c6"/>
    <path id="Pfad_2131" data-name="Pfad 2131" d="M9.092,18.217A47.593,47.593,0,0,0,32.7,12.23,43.892,43.892,0,0,0,49.6-4.479a47.467,47.467,0,0,0,6.182-24.144A47.112,47.112,0,0,0,49.6-52.7,44.05,44.05,0,0,0,32.7-69.344a47.606,47.606,0,0,0-23.61-5.987,47.337,47.337,0,0,0-23.478,5.987A44.479,44.479,0,0,0-31.351-52.7,46.717,46.717,0,0,0-37.6-28.622,47.068,47.068,0,0,0-31.351-4.479,44.316,44.316,0,0,0-14.386,12.23,47.324,47.324,0,0,0,9.092,18.217m0-13.027A31.5,31.5,0,0,1-7.085,1.047,28.733,28.733,0,0,1-18.2-10.795,38.023,38.023,0,0,1-22.21-28.622,37.631,37.631,0,0,1-18.2-46.384,28.381,28.381,0,0,1-7.085-58.095,31.9,31.9,0,0,1,9.092-62.173a31.9,31.9,0,0,1,16.177,4.078,28.4,28.4,0,0,1,11.114,11.71,37.66,37.66,0,0,1,4.011,17.762,38.053,38.053,0,0,1-4.011,17.828A28.757,28.757,0,0,1,25.269,1.047,31.506,31.506,0,0,1,9.092,5.19" transform="translate(1098.93 1744.786)" fill="#ddd6c6"/>
    <path id="Pfad_2133" data-name="Pfad 2133" d="M152.245-359.5h12.971v-6.533H152.245Z" transform="translate(880.839 2075.733)" fill="#ddd6c6"/>
    <path id="Pfad_2134" data-name="Pfad 2134" d="M158.513-428.735H285.369v-12.632H158.513Z" transform="translate(882.355 2057.517)" fill="#ddd6c6"/>
    <path id="Pfad_2135" data-name="Pfad 2135" d="M9.092,18.217A47.593,47.593,0,0,0,32.7,12.23,43.892,43.892,0,0,0,49.6-4.479a47.467,47.467,0,0,0,6.182-24.144A47.112,47.112,0,0,0,49.6-52.7,44.059,44.059,0,0,0,32.7-69.344a47.606,47.606,0,0,0-23.61-5.987,47.337,47.337,0,0,0-23.478,5.987A44.487,44.487,0,0,0-31.351-52.7,46.717,46.717,0,0,0-37.6-28.622,47.068,47.068,0,0,0-31.351-4.479,44.316,44.316,0,0,0-14.386,12.23,47.324,47.324,0,0,0,9.092,18.217m0-13.027A31.5,31.5,0,0,1-7.085,1.047,28.733,28.733,0,0,1-18.2-10.795,38.023,38.023,0,0,1-22.21-28.622,37.631,37.631,0,0,1-18.2-46.384,28.381,28.381,0,0,1-7.085-58.095,31.9,31.9,0,0,1,9.092-62.173a31.9,31.9,0,0,1,16.177,4.078,28.4,28.4,0,0,1,11.114,11.71,37.66,37.66,0,0,1,4.011,17.762,38.053,38.053,0,0,1-4.011,17.828A28.757,28.757,0,0,1,25.269,1.047,31.506,31.506,0,0,1,9.092,5.19" transform="translate(1098.93 1557.692)" fill="#ddd6c6"/>
    <path id="Pfad_2137" data-name="Pfad 2137" d="M152.245-505.338h12.971v-6.1H152.245Z" transform="translate(880.839 2040.573)" fill="#ddd6c6"/>
    <path id="Pfad_2138" data-name="Pfad 2138" d="M54.5-509.969h121.63V-516.5H54.5Z" transform="translate(857.201 2039.348)" fill="#ddd6c6"/>
    <path id="Pfad_2139" data-name="Pfad 2139" d="M9.092,18.217A47.593,47.593,0,0,0,32.7,12.23,43.884,43.884,0,0,0,49.6-4.479a47.467,47.467,0,0,0,6.182-24.144A47.115,47.115,0,0,0,49.6-52.7,44.05,44.05,0,0,0,32.7-69.344a47.606,47.606,0,0,0-23.61-5.987,47.337,47.337,0,0,0-23.478,5.987A44.479,44.479,0,0,0-31.351-52.7,46.72,46.72,0,0,0-37.6-28.622,47.068,47.068,0,0,0-31.351-4.479,44.308,44.308,0,0,0-14.386,12.23,47.324,47.324,0,0,0,9.092,18.217m0-13.027A31.5,31.5,0,0,1-7.085,1.047,28.733,28.733,0,0,1-18.2-10.795,38.023,38.023,0,0,1-22.21-28.622,37.631,37.631,0,0,1-18.2-46.384,28.381,28.381,0,0,1-7.085-58.095,31.9,31.9,0,0,1,9.092-62.173a31.9,31.9,0,0,1,16.177,4.078,28.4,28.4,0,0,1,11.114,11.71,37.66,37.66,0,0,1,4.011,17.762,38.053,38.053,0,0,1-4.011,17.828A28.757,28.757,0,0,1,25.269,1.047,31.506,31.506,0,0,1,9.092,5.19" transform="translate(840.345 1557.935)" fill="#ddd6c6"/>
    <path id="Pfad_2141" data-name="Pfad 2141" d="M9.092,18.217A47.593,47.593,0,0,0,32.7,12.23,43.887,43.887,0,0,0,49.6-4.48a47.459,47.459,0,0,0,6.182-24.142A47.112,47.112,0,0,0,49.6-52.7,44.05,44.05,0,0,0,32.7-69.344a47.606,47.606,0,0,0-23.61-5.987,47.337,47.337,0,0,0-23.478,5.987A44.479,44.479,0,0,0-31.351-52.7,46.717,46.717,0,0,0-37.6-28.622,47.06,47.06,0,0,0-31.351-4.48,44.311,44.311,0,0,0-14.386,12.23,47.324,47.324,0,0,0,9.092,18.217m0-13.027A31.5,31.5,0,0,1-7.085,1.047,28.741,28.741,0,0,1-18.2-10.795,38.023,38.023,0,0,1-22.21-28.622,37.631,37.631,0,0,1-18.2-46.384,28.381,28.381,0,0,1-7.085-58.095,31.9,31.9,0,0,1,9.092-62.174a31.9,31.9,0,0,1,16.177,4.079,28.4,28.4,0,0,1,11.114,11.71,37.66,37.66,0,0,1,4.011,17.762,38.053,38.053,0,0,1-4.011,17.828A28.765,28.765,0,0,1,25.269,1.047,31.506,31.506,0,0,1,9.092,5.19" transform="translate(969.759 1464.388)" fill="#ddd6c6"/>
    <path id="Pfad_2142" data-name="Pfad 2142" d="M-49.717-579.2h134.6v-12.632h-134.6Z" transform="translate(832 2021.131)" fill="#ddd6c6"/>
    <path id="Pfad_2145" data-name="Pfad 2145" d="M9.092,18.217A47.593,47.593,0,0,0,32.7,12.23,43.884,43.884,0,0,0,49.6-4.479a47.467,47.467,0,0,0,6.182-24.144A47.115,47.115,0,0,0,49.6-52.7,44.05,44.05,0,0,0,32.7-69.344a47.606,47.606,0,0,0-23.61-5.987,47.337,47.337,0,0,0-23.478,5.987A44.479,44.479,0,0,0-31.351-52.7,46.72,46.72,0,0,0-37.6-28.622,47.068,47.068,0,0,0-31.351-4.479,44.308,44.308,0,0,0-14.386,12.23,47.324,47.324,0,0,0,9.092,18.217m0-13.027A31.5,31.5,0,0,1-7.085,1.047,28.733,28.733,0,0,1-18.2-10.795,38.023,38.023,0,0,1-22.21-28.622,37.631,37.631,0,0,1-18.2-46.384,28.381,28.381,0,0,1-7.085-58.095,31.9,31.9,0,0,1,9.092-62.173a31.9,31.9,0,0,1,16.177,4.078,28.4,28.4,0,0,1,11.114,11.71,37.66,37.66,0,0,1,4.011,17.762,38.053,38.053,0,0,1-4.011,17.828A28.757,28.757,0,0,1,25.269,1.047,31.506,31.506,0,0,1,9.092,5.19" transform="translate(1098.93 1557.935)" fill="#ddd6c6"/>
    <path id="Pfad_2147" data-name="Pfad 2147" d="M152.245-509.969h12.971V-516.5H152.245Z" transform="translate(880.839 2039.348)" fill="#ddd6c6"/>
    <path id="Pfad_2148" data-name="Pfad 2148" d="M158.513-579.2H285.369v-12.632H158.513Z" transform="translate(882.355 2021.131)" fill="#ddd6c6"/>
    <path id="Pfad_2149" data-name="Pfad 2149" d="M9.092,18.217A47.593,47.593,0,0,0,32.7,12.23,43.887,43.887,0,0,0,49.6-4.48a47.459,47.459,0,0,0,6.182-24.142A47.112,47.112,0,0,0,49.6-52.7,44.05,44.05,0,0,0,32.7-69.344a47.606,47.606,0,0,0-23.61-5.987,47.337,47.337,0,0,0-23.478,5.987A44.479,44.479,0,0,0-31.351-52.7,46.717,46.717,0,0,0-37.6-28.622,47.06,47.06,0,0,0-31.351-4.48,44.311,44.311,0,0,0-14.386,12.23,47.324,47.324,0,0,0,9.092,18.217m0-13.027A31.5,31.5,0,0,1-7.085,1.047,28.741,28.741,0,0,1-18.2-10.795,38.026,38.026,0,0,1-22.21-28.622,37.631,37.631,0,0,1-18.2-46.384,28.381,28.381,0,0,1-7.085-58.095,31.9,31.9,0,0,1,9.092-62.174a31.9,31.9,0,0,1,16.177,4.079,28.4,28.4,0,0,1,11.114,11.71,37.66,37.66,0,0,1,4.011,17.762,38.057,38.057,0,0,1-4.011,17.828A28.765,28.765,0,0,1,25.269,1.047,31.506,31.506,0,0,1,9.092,5.19" transform="translate(1098.93 1370.841)" fill="#ddd6c6"/>
  </g>
</svg>
