<svg xmlns="http://www.w3.org/2000/svg" xmlns:xlink="http://www.w3.org/1999/xlink" width="301.883" height="103.242" viewBox="0 0 301.883 103.242">
  <defs>
    <clipPath id="clip-path">
      <path id="Path_2191" data-name="Path 2191" d="M0,47.537H301.883V-55.705H0Z" transform="translate(0 55.705)" fill="none"/>
    </clipPath>
  </defs>
  <g id="Logo" transform="translate(0 55.705)">
    <g id="Group_720" data-name="Group 720" transform="translate(0 -55.705)" clip-path="url(#clip-path)">
      <g id="Group_719" data-name="Group 719" transform="translate(0 -0.001)">
        <path id="Path_2190" data-name="Path 2190" d="M22.2,10.665H15.838l-1.2,13.759H22.2ZM-2.852,24.425h12.3l1.2-13.759h-13.5ZM36.742,29.59H14.181L11.375,61.672a5.434,5.434,0,0,0,10.826.969V48.2a7.271,7.271,0,0,1,14.542,0V67.583H54.066V10.665H36.742ZM25.607-12.5A51.622,51.622,0,1,0,77.229,39.124,51.681,51.681,0,0,0,25.607-12.5m0,98.077A46.456,46.456,0,1,1,72.062,39.124,46.509,46.509,0,0,1,25.607,85.579M9,29.59H-2.852V67.583H7.687a10.518,10.518,0,0,1-1.459-6.357ZM189.972,46.148V8.775H185V24.844H165.318V8.775h-4.973V46.148h4.973V29.032H185V46.148Zm74.643-3.3c-3.664,0-7.119-1.257-7.276-5.234H252.89c.261,6.7,5.391,9.159,11.463,9.159,5.5,0,11.515-2.094,11.515-8.533,0-5.234-4.4-6.7-8.846-7.693-4.135-1-8.846-1.518-8.846-4.711,0-2.723,3.09-3.455,5.758-3.455,2.93,0,5.968,1.1,6.281,4.554h4.45c-.367-6.6-5.13-8.479-11.1-8.479-4.711,0-10.1,2.25-10.1,7.693,0,5.184,4.45,6.648,8.846,7.643,4.45.993,8.846,1.57,8.846,5.024,0,3.4-3.768,4.031-6.542,4.031M142.19,34.124c1.21-6.857,4.548-10.94,11.719-10.94l.83-4.711c-4.789-.158-8.151,1.989-11.063,6.333h-.106l1.008-5.7H140.39l-4.772,27.063h4.45Zm75.994,12.653a6,6,0,0,0,3.193-.732V42.588a3.823,3.823,0,0,1-1.36.263c-1.412,0-1.412-.943-1.412-3.036V25.891c0-6.333-5.288-7.432-10.155-7.432-6.02,0-11.2,2.356-11.463,9.056h4.448c.209-3.979,2.984-5.13,6.752-5.13,2.828,0,6.02.628,6.02,4.5,0,3.349-4.187,3.036-9.107,3.977-4.606.89-9.161,2.2-9.161,8.323,0,5.391,4.031,7.59,8.952,7.59a12.005,12.005,0,0,0,9.526-4.189c0,2.932,1.466,4.189,3.768,4.189m-4.029-10.051c0,2.461-2.408,6.125-8.27,6.125-2.723,0-5.236-1.047-5.236-3.979,0-3.3,2.513-4.344,5.443-4.867,2.986-.525,6.335-.576,8.062-1.833ZM117.292,46.791c8.585,0,14.236-6.229,15.631-14.134,1.4-7.957-2.054-14.186-10.638-14.186S108.049,24.7,106.646,32.658c-1.4,7.9,2.061,14.134,10.646,14.134m-5.936-14.134c1.164-6.6,5.579-10.26,10.238-10.26s7.78,3.664,6.617,10.26c-1.153,6.544-5.568,10.208-10.227,10.208s-7.78-3.664-6.628-10.208m-9.853,9.58H99.46c-2.775,0-3.284-.367-2.925-2.408l2.962-16.8h5.391l.693-3.925H100.19l1.431-8.114h-4.45L95.741,19.1H91.135l-.691,3.925h4.606L92.012,40.249c-.877,4.973.79,5.914,5.4,5.914h3.4Zm142.12-.382h.106v4.292h4.187V19.087h-4.45V34.372c0,4.867-2.617,8.479-8.008,8.479a5.1,5.1,0,0,1-5.5-5.443V19.087h-4.45v17.8c0,5.81,2.2,9.893,9.317,9.893a9.416,9.416,0,0,0,8.794-4.921M128.675,59.183h-1.062V61.12h-1.1v.936h1.1v4.113c0,1.186.437,1.41,1.536,1.41h.812v-.936h-.487c-.662,0-.8-.087-.8-.575V62.056h1.286V61.12h-1.286Zm-18.432.775h1.062v-1.3h-1.062Zm5.6,1.012a3.11,3.11,0,0,0-3.036,3.362c.061,1.974,1.036,3.4,3.1,3.4a2.6,2.6,0,0,0,2.76-2.2h-1.049a1.557,1.557,0,0,1-1.674,1.262,1.9,1.9,0,0,1-2.013-2.124h4.835c.063-1.562-.636-3.7-2.923-3.7m-1.913,2.762a1.84,1.84,0,0,1,1.85-1.824,1.86,1.86,0,0,1,1.863,1.824Zm11.7-2.611H124.21l-2.949,2.825V58.659H120.2v8.92h1.062V65.131l1-.925,2.211,3.373h1.351l-2.75-4.111Zm8.2-.15a3.111,3.111,0,0,0-3.036,3.362c.063,1.974,1.036,3.4,3.1,3.4a2.6,2.6,0,0,0,2.762-2.2h-1.049a1.56,1.56,0,0,1-1.675,1.262,1.9,1.9,0,0,1-2.011-2.124h4.835c.063-1.562-.638-3.7-2.925-3.7m-1.911,2.762a1.838,1.838,0,0,1,1.85-1.824,1.861,1.861,0,0,1,1.863,1.824Zm-37.57-5.073H90.442v8.92H91.63V63.931h2.723a2.638,2.638,0,1,0,0-5.273m-.4,4.274H91.63V59.658h2.324c1.336,0,1.95.575,1.95,1.637s-.613,1.65-1.95,1.638m11.673-1.963a3.389,3.389,0,1,0,3.136,3.386,3.065,3.065,0,0,0-3.136-3.386m0,5.823c-1.112,0-2.011-.875-2.011-2.437s.9-2.448,2.011-2.448,2.011.875,2.011,2.448-.9,2.437-2.011,2.437m4.617,1.436c0,.662-.137.888-.6.888a2.465,2.465,0,0,1-.437-.026V70a2.7,2.7,0,0,0,.549.05,1.434,1.434,0,0,0,1.549-1.65V61.12h-1.062ZM99.464,62.482H99.44V61.12h-1v6.459H99.5V64.706c0-1.637.625-2.611,2.337-2.611V60.97a2.348,2.348,0,0,0-2.374,1.512m89.82-1.512a2.249,2.249,0,0,0-2.1,1.175h-.024V61.12h-1v6.459h1.06V63.931a1.816,1.816,0,0,1,1.913-2.024,1.217,1.217,0,0,1,1.312,1.3v4.372h1.062V63.331c0-1.386-.524-2.361-2.224-2.361m45.986,6.609h1.062V58.657H235.27Zm2.926,0h1.062V58.657H238.2Zm5.9-3.723c-.988-.237-2.113-.361-2.113-1.123,0-.651.738-.825,1.375-.825.7,0,1.425.261,1.5,1.086h1.062c-.087-1.574-1.225-2.024-2.648-2.024-1.125,0-2.411.537-2.411,1.837,0,1.236,1.062,1.586,2.111,1.824s2.111.374,2.111,1.2-.9.964-1.561.964c-.875,0-1.7-.3-1.737-1.251h-1.062c.061,1.6,1.286,2.187,2.736,2.187,1.312,0,2.749-.5,2.749-2.037,0-1.249-1.049-1.6-2.111-1.837M230.918,60.97a3.111,3.111,0,0,0-3.036,3.362c.063,1.974,1.036,3.4,3.1,3.4a2.6,2.6,0,0,0,2.762-2.2h-1.049a1.56,1.56,0,0,1-1.675,1.262,1.9,1.9,0,0,1-2.011-2.124h4.835c.063-1.562-.638-3.7-2.925-3.7m-1.911,2.762a1.838,1.838,0,0,1,1.85-1.824,1.858,1.858,0,0,1,1.861,1.824Zm-4.313.124c-.988-.237-2.113-.361-2.113-1.123,0-.651.738-.825,1.375-.825.7,0,1.423.261,1.5,1.086h1.062c-.087-1.574-1.225-2.024-2.648-2.024-1.125,0-2.413.537-2.413,1.837,0,1.236,1.064,1.586,2.113,1.824s2.111.374,2.111,1.2-.9.964-1.562.964c-.873,0-1.7-.3-1.737-1.251H221.32c.063,1.6,1.286,2.187,2.737,2.187,1.31,0,2.749-.5,2.749-2.037,0-1.249-1.051-1.6-2.111-1.837m42.142,2.213V62.743c0-1.512-1.262-1.774-2.424-1.774-1.436,0-2.674.562-2.736,2.161h1.062c.05-.949.712-1.223,1.612-1.223.673,0,1.436.148,1.436,1.073,0,.8-1,.725-2.174.951-1.1.211-2.187.525-2.187,1.987,0,1.286.962,1.811,2.137,1.811a2.866,2.866,0,0,0,2.274-1c0,.7.348,1,.9,1a1.425,1.425,0,0,0,.762-.174V66.73a.911.911,0,0,1-.324.063c-.337,0-.337-.226-.337-.725m-1.062-.738c0,.588-.575,1.462-1.974,1.462-.651,0-1.249-.25-1.249-.951,0-.786.6-1.036,1.3-1.162a5.45,5.45,0,0,0,1.924-.437Zm8.665-6.148h-1.062V61.12h-1.1v.936h1.1v4.113c0,1.186.437,1.41,1.536,1.41h.814v-.936h-.487c-.662,0-.8-.087-.8-.575V62.056h1.288V61.12h-1.288Zm-5.327.973v.964h-1.086v.936h1.086v5.523h1.062V62.056h1.249V61.12h-1.249v-.9c0-.562.3-.725.812-.725a1.973,1.973,0,0,1,.6.089v-.925a2.6,2.6,0,0,0-.688-.1c-1.162,0-1.787.55-1.787,1.6m-18.8,6.637c-1.351,0-1.889-1.175-1.889-2.363,0-1.31.476-2.522,2.013-2.522a1.5,1.5,0,0,1,1.6,1.286h1.1a2.475,2.475,0,0,0-2.786-2.224c-2.05,0-3.049,1.523-3.049,3.46s1.049,3.3,3.023,3.3a2.683,2.683,0,0,0,2.849-2.511h-1.086a1.671,1.671,0,0,1-1.774,1.575m7.421-5.823a2.187,2.187,0,0,0-2.037,1.1h-.026v-3.41h-1.06v8.92h1.06V63.931a1.816,1.816,0,0,1,1.913-2.024,1.217,1.217,0,0,1,1.312,1.3v4.372h1.062V63.331c0-1.386-.525-2.361-2.224-2.361m-40.355,0a3.11,3.11,0,0,0-3.036,3.362c.061,1.974,1.036,3.4,3.1,3.4a2.6,2.6,0,0,0,2.762-2.2h-1.049a1.557,1.557,0,0,1-1.674,1.262,1.9,1.9,0,0,1-2.013-2.124H220.3c.061-1.562-.638-3.7-2.925-3.7m-1.913,2.762a1.856,1.856,0,0,1,3.712,0Zm-56.077,3.848h1.062V61.118h-1.062Zm0-7.621h1.062v-1.3h-1.062Zm-18.1,1.012a2.247,2.247,0,0,0-2.1,1.175h-.026V61.12h-1v6.459h1.062V63.931a1.815,1.815,0,0,1,1.911-2.024,1.218,1.218,0,0,1,1.314,1.3v4.372h1.06V63.331c0-1.386-.523-2.361-2.222-2.361m5.488-1.787h-1.062V61.12h-1.1v.936h1.1v4.113c0,1.186.437,1.41,1.536,1.41h.812v-.936h-.486c-.664,0-.8-.087-.8-.575V62.056h1.286V61.12h-1.286Zm8.8,7.223h-.024l-1.351-5.286h-1.162l-1.3,5.286h-.024l-1.462-5.286h-1.175l2.074,6.459h1.149l1.3-5.136h.024l1.312,5.136h1.125l2.061-6.459h-1.1Zm9.426.387c-1.351,0-1.887-1.175-1.887-2.363,0-1.31.474-2.522,2.011-2.522a1.5,1.5,0,0,1,1.6,1.286h1.1a2.477,2.477,0,0,0-2.787-2.224c-2.05,0-3.049,1.523-3.049,3.46s1.051,3.3,3.025,3.3a2.685,2.685,0,0,0,2.849-2.511h-1.088A1.671,1.671,0,0,1,165,66.793m18.28-2.024a1.815,1.815,0,0,1-1.911,2.024,1.218,1.218,0,0,1-1.314-1.3V61.12h-1.06v4.248c0,1.386.523,2.361,2.222,2.361a2.247,2.247,0,0,0,2.1-1.173h.026v1.023h1V61.12h-1.062Zm-8.516-3.649h-1.425l-2.949,2.825V58.659h-1.062v8.92h1.062V65.131l1-.925,2.211,3.373h1.349L172.2,63.468Zm23.139.925h-.013a2.106,2.106,0,0,0-1.924-1.075c-2.237,0-2.986,1.887-2.986,3.41,0,1.763.962,3.275,2.886,3.275a2.15,2.15,0,0,0,2.011-1.175h.026V66.9c0,1.449-.55,2.45-1.937,2.45-.7,0-1.625-.274-1.675-1.049h-1.06c.061,1.41,1.46,1.9,2.673,1.9,2.037,0,3-1.075,3-3.173V61.12h-1Zm-1.974,4.672c-1.4,0-1.824-1.3-1.824-2.461,0-1.238.549-2.348,1.911-2.348,1.336,0,1.837,1.173,1.837,2.311,0,1.212-.525,2.5-1.924,2.5m7.806-2.862c-.988-.237-2.113-.361-2.113-1.123,0-.651.738-.825,1.375-.825.7,0,1.423.261,1.5,1.086h1.06c-.085-1.574-1.223-2.024-2.647-2.024-1.125,0-2.413.537-2.413,1.837,0,1.236,1.062,1.586,2.113,1.824s2.111.374,2.111,1.2-.9.964-1.562.964c-.875,0-1.7-.3-1.737-1.251h-1.062c.063,1.6,1.286,2.187,2.737,2.187,1.31,0,2.749-.5,2.749-2.037,0-1.249-1.051-1.6-2.111-1.837M176.1,67.579h1.062V58.657H176.1Zm35.755-5.534h-.013a2.106,2.106,0,0,0-1.924-1.075c-2.237,0-2.986,1.887-2.986,3.41,0,1.763.962,3.275,2.886,3.275a2.15,2.15,0,0,0,2.011-1.175h.026V66.9c0,1.449-.549,2.45-1.937,2.45-.7,0-1.625-.274-1.674-1.049h-1.062c.061,1.41,1.46,1.9,2.673,1.9,2.037,0,3-1.075,3-3.173V61.12h-1Zm-1.974,4.672c-1.4,0-1.824-1.3-1.824-2.461,0-1.238.549-2.348,1.911-2.348,1.338,0,1.837,1.173,1.837,2.311,0,1.212-.525,2.5-1.924,2.5" transform="translate(26.015 12.498)" fill="#262726"/>
      </g>
    </g>
  </g>
</svg>
