<svg xmlns="http://www.w3.org/2000/svg" width="293.996" height="70" viewBox="0 0 293.996 70">
  <g id="Logo" transform="translate(0)">
    <path id="Pfad_2151" data-name="Pfad 2151" d="M42.341,0V29.867H9.41V0H0V70H9.41V39.2H42.341V70h9.41V0Z" transform="translate(0 0)" fill="#322e2d"/>
    <path id="Pfad_2152" data-name="Pfad 2152" d="M26.864,0,48.808,29.96H60.571L38.625,0Zm55.65,0L60.571,29.96V70h9.41V33.171L94.277,0Z" transform="translate(32.891)" fill="#322e2d"/>
    <path id="Pfad_2153" data-name="Pfad 2153" d="M60.7,0V70h42.343V60.666H70.1v-21h30.112V30.333H70.1v-21h32.933V0Z" transform="translate(74.453 0)" fill="#322e2d"/>
    <path id="Pfad_2154" data-name="Pfad 2154" d="M106.74,0V9.334h23.524V70h9.41V9.334H163.2V0Z" transform="translate(130.801 0)" fill="#322e2d"/>
    <path id="Pfad_2155" data-name="Pfad 2155" d="M130.134,34.993a48.783,48.783,0,0,0-8.211-3.275c-2.886-.872-5.831-1.67-8.753-2.375a55.451,55.451,0,0,1-7.67-2.408,12.492,12.492,0,0,1-5.055-3.59,6.982,6.982,0,0,1-1.8-5,7.061,7.061,0,0,1,3.761-6.7c2.706-1.683,6.11-2.232,10.1-2.274l1.531-.036V0h-1.531a35.152,35.152,0,0,0-10.938,1.828A21.523,21.523,0,0,0,92.2,8.174a15.058,15.058,0,0,0-3.943,10.468,16.556,16.556,0,0,0,2.5,9.273,15.683,15.683,0,0,0,6.564,5.775,48.7,48.7,0,0,0,8.211,3.275c2.866.865,5.811,1.663,8.753,2.375a67.747,67.747,0,0,1,8.117,2.413,9.7,9.7,0,0,1,4.6,3.608,8.55,8.55,0,0,1,1.805,5.472c0,4.591-1.657,9.9-15.989,9.9-4.783,0-8.782-1.035-11.882-3.077a10.778,10.778,0,0,1-5.053-8.611V49l-10.07.058V49.5a19.135,19.135,0,0,0,2.581,9.048,20.678,20.678,0,0,0,5.474,5.922,25.048,25.048,0,0,0,6.84,3.572,31.923,31.923,0,0,0,6.58,1.641,46.5,46.5,0,0,0,5.332.312c8.153,0,14.656-1.831,19.329-5.44,4.815-3.721,6.649-7.951,6.649-14.123,0-3.724-.492-6.537-2.151-9.255a15.843,15.843,0,0,0-6.31-6.187" transform="translate(105.184)" fill="#322e2d"/>
  </g>
</svg>
